<svg width="16" height="15" viewBox="0 0 16 15" fill="none" xmlns="http://www.w3.org/2000/svg">
<path d="M2.10294 14.9338C1.40686 14.9338 0.882353 14.7549 0.529412 14.397C0.176471 14.0441 0 13.5147 0 12.8088V2.19116C0 1.48528 0.176471 0.955868 0.529412 0.602927C0.882353 0.245084 1.40686 0.0661621 2.10294 0.0661621H9.50735C10.2083 0.0661621 10.7328 0.245084 11.0809 0.602927C11.4338 0.955868 11.6103 1.48528 11.6103 2.19116V12.8088C11.6103 13.5147 11.4338 14.0441 11.0809 14.397C10.7328 14.7549 10.2083 14.9338 9.50735 14.9338H2.10294ZM5.91912 7.49263C5.91912 7.62989 5.96814 7.74999 6.06618 7.85293C6.16422 7.95097 6.27941 7.99999 6.41176 7.99999H13.5809L14.6103 7.95587L14.1838 8.36763L12.9853 9.49999C12.8824 9.59312 12.8309 9.71077 12.8309 9.85293C12.8309 9.98038 12.8725 10.0882 12.9559 10.1765C13.0392 10.2647 13.1446 10.3088 13.2721 10.3088C13.3946 10.3088 13.5049 10.2573 13.6029 10.1544L15.8382 7.86028C15.8971 7.79655 15.9387 7.73528 15.9632 7.67646C15.9877 7.61763 16 7.55636 16 7.49263C16 7.42891 15.9877 7.36763 15.9632 7.30881C15.9387 7.24999 15.8971 7.19116 15.8382 7.13234L13.6029 4.82351C13.5049 4.72548 13.3946 4.67646 13.2721 4.67646C13.1446 4.67646 13.0392 4.72057 12.9559 4.80881C12.8725 4.89214 12.8309 4.99999 12.8309 5.13234C12.8309 5.2745 12.8824 5.39214 12.9853 5.48528L14.1838 6.61763L14.6103 7.03675L13.5809 6.99263H6.41176C6.27941 6.99263 6.16422 7.04165 6.06618 7.13969C5.96814 7.23773 5.91912 7.35538 5.91912 7.49263Z" fill="black"/>
</svg>
