<svg width="8" height="12" viewBox="0 0 8 12" fill="none" xmlns="http://www.w3.org/2000/svg">
<path d="M0.55249 6C0.55249 6.23051 0.640626 6.42712 0.823677 6.60339L6.11181 11.7763C6.25419 11.9254 6.44402 12 6.66096 12C7.10164 12 7.44741 11.661 7.44741 11.2136C7.44741 10.9966 7.35927 10.8 7.21012 10.6508L2.44402 6L7.21012 1.34915C7.35927 1.19322 7.44741 0.99661 7.44741 0.779661C7.44741 0.338983 7.10164 0 6.66096 0C6.44402 0 6.25419 0.0745763 6.11181 0.223729L0.823677 5.39661C0.640626 5.57288 0.55927 5.76949 0.55249 6Z" fill="#9E1A7E"/>
</svg>
