<svg width="1030" height="1030" viewBox="0 0 1030 1030" fill="none" xmlns="http://www.w3.org/2000/svg">
<rect width="1024" height="1024" transform="translate(2 2)" fill="white"/>
<rect x="2" y="2" width="1024" height="1024" fill="url(#paint0_linear_234_842)"/>
<g opacity="0.4">
<mask id="mask0_234_842" style="mask-type:luminance" maskUnits="userSpaceOnUse" x="2" y="2" width="1024" height="1024">
<rect x="2" y="2" width="1024" height="1024" fill="white"/>
</mask>
<g mask="url(#mask0_234_842)">
<path opacity="0.5" fill-rule="evenodd" clip-rule="evenodd" d="M708.163 910.556C751.419 889.291 790.706 861.182 824.601 827.612L952.618 955.629H708.163V910.556ZM516.163 955.629V955.578C583.304 955.254 646.954 939.894 703.897 912.655V955.629H516.163ZM324.163 955.629V912.655C381.106 939.894 444.757 955.254 511.897 955.578V955.629H324.163ZM75.4504 955.629L203.459 827.612C237.353 861.182 276.649 889.291 319.896 910.556V955.629H75.4504ZM117.503 708.162C138.768 751.418 166.877 790.705 200.447 824.6L72.4301 952.617V708.162H117.503ZM72.4301 516.162H72.4813C72.8055 583.311 88.1656 646.953 115.404 703.896H72.4301V516.162ZM72.4301 324.162H115.404C88.1656 381.105 72.8055 444.755 72.4813 511.896H72.4301V324.162ZM72.4301 75.4498L200.447 203.458C166.877 237.353 138.768 276.649 117.503 319.896H72.4301V75.4498ZM319.896 117.502C276.649 138.767 237.353 166.876 203.459 200.446L75.4504 72.429H319.896V117.502ZM511.897 72.429V72.4802C444.757 72.8045 381.106 88.173 324.163 115.403V72.429H511.897ZM703.897 72.429V115.403C646.954 88.173 583.304 72.8045 516.163 72.4802V72.429H703.897ZM952.618 72.429L824.601 200.446C790.706 166.876 751.419 138.767 708.163 117.502V72.429H952.618ZM910.557 319.896C889.3 276.649 861.192 237.353 827.622 203.458L955.63 75.4498V319.896H910.557ZM955.63 511.896H955.578C955.263 444.755 939.894 381.105 912.664 324.162H955.63V511.896ZM955.63 703.896H912.664C939.894 646.953 955.263 583.311 955.578 516.162H955.63V703.896ZM711.184 708.162H905.761C884.829 750.249 857.352 788.512 824.601 821.579L711.184 708.162ZM708.163 711.175L821.588 824.6C788.513 857.351 750.25 884.819 708.163 905.76V711.175ZM516.163 789.178C588.893 788.615 654.95 759.695 703.897 712.958V907.953C647.048 935.465 583.372 950.987 516.163 951.311V789.178ZM324.163 712.958C373.111 759.695 439.167 788.615 511.897 789.178V951.311C444.688 950.987 381.012 935.465 324.163 907.953V712.958ZM319.896 711.183V905.76C277.818 884.819 239.546 857.351 206.48 824.6L319.896 711.183ZM316.884 708.162L203.459 821.579C170.708 788.512 143.24 750.249 122.299 708.162H316.884ZM238.881 516.162C239.444 588.892 268.363 654.948 315.1 703.896H120.105C92.5937 647.047 77.0715 583.371 76.7473 516.162H238.881ZM315.1 324.162C268.363 373.11 239.444 439.166 238.881 511.896H76.7473C77.0715 444.687 92.5937 381.011 120.114 324.162H315.1ZM316.884 319.896H122.299C143.24 277.818 170.708 239.546 203.459 206.479L316.884 319.896ZM319.896 316.875L206.48 203.458C239.546 170.707 277.818 143.239 319.896 122.298V316.875ZM511.897 238.88C439.167 239.443 373.111 268.363 324.163 315.1V120.113C381.012 92.5933 444.688 77.0711 511.897 76.7469V238.88ZM703.897 315.1C654.95 268.363 588.893 239.443 516.163 238.88V76.7469C583.372 77.0711 647.048 92.5933 703.897 120.113V315.1ZM708.163 316.883V122.298C750.25 143.239 788.513 170.707 821.588 203.458L708.163 316.883ZM711.184 319.896L824.601 206.479C857.352 239.546 884.82 277.818 905.761 319.896H711.184ZM789.179 511.896C788.624 439.166 759.696 373.11 712.959 324.162H907.954C935.466 381.011 950.988 444.687 951.312 511.896H789.179ZM789.179 516.162H951.312C950.988 583.371 935.466 647.047 907.954 703.896H712.959C759.696 654.948 788.624 588.892 789.179 516.162ZM516.163 708.162H702.745C654.395 755.181 588.637 784.348 516.163 784.911V708.162ZM511.896 708.162V784.911C439.422 784.348 373.664 755.181 325.315 708.162H511.896ZM319.897 516.162V702.744C272.887 654.394 243.72 588.636 243.148 516.162H319.897ZM319.897 511.896H243.148C243.72 439.422 272.887 373.664 319.897 325.314V511.896ZM511.896 319.896H325.315C373.664 272.886 439.422 243.719 511.896 243.147V319.896ZM516.163 319.896V243.147C588.637 243.719 654.395 272.886 702.745 319.896H516.163ZM708.163 511.896V325.314C755.182 373.664 784.349 439.422 784.912 511.896H708.163ZM708.163 516.162H784.912C784.349 588.636 755.182 654.394 708.163 702.752V516.162ZM516.163 519.175L700.884 703.896H516.163V519.175ZM511.897 519.183V703.896H327.184L511.897 519.183ZM508.884 516.162L324.163 700.883V516.162H508.884ZM508.884 511.896H324.163V327.175L508.884 511.896ZM511.897 508.875L327.184 324.162H511.897V508.875ZM516.163 508.883V324.162H700.884L516.163 508.883ZM703.897 516.162V700.875L519.184 516.162H703.897ZM519.184 511.896L703.897 327.183V511.896H519.184ZM955.63 952.617L827.622 824.6C861.192 790.705 889.3 751.418 910.557 708.162H955.63V952.617ZM1037.58 1034.56L962.918 959.896H1028.16V955.629H959.897V708.162H1028.16V703.896H959.897V516.162H1028.16V511.896H959.897V324.162H1028.16V319.896H959.897V72.429H1028.16V68.1623H962.918L1029.05 2.02899L1026.03 -0.983276L959.897 65.1501V-0.104343H955.63V68.1623H708.163V-0.104343H703.897V68.1623H516.163V-0.104343H511.897V68.1623H324.163V-0.104343H319.897V68.1623H72.4301V-0.104343H68.1634V65.1501L2.03008 -0.983276L-0.990723 2.02899L65.1511 68.1623H-0.103256V72.429H68.1634V319.896H-0.103256V324.162H68.1634V511.896H-0.103256V516.162H68.1634V703.896H-0.103256V708.162H68.1634V955.629H-0.103256V959.896H65.1511L-0.990723 1026.03L2.03008 1029.05L68.1634 962.916V1028.16H72.4301V959.896H319.897V1028.16H324.163V959.896H511.897V1028.16H516.163V959.896H703.897V1028.16H708.163V959.896H955.63V1028.16H959.897V962.916L1034.56 1037.58L1037.58 1034.56Z" fill="white"/>
</g>
</g>
<g opacity="0.4">
<rect opacity="0.720266" x="176" y="48" width="678" height="934" rx="142" stroke="white" stroke-width="4"/>
<rect opacity="0.720266" x="112" y="112" width="806" height="806" rx="142" stroke="white" stroke-width="4"/>
<rect opacity="0.720266" x="48" y="176" width="934" height="678" rx="142" stroke="white" stroke-width="4"/>
<path d="M982 515C982 772.917 772.917 982 515 982C257.083 982 48 772.917 48 515C48 257.083 257.083 48 515 48C772.917 48 982 257.083 982 515Z" stroke="white" stroke-width="4"/>
<path d="M724 515C724 630.427 630.427 724 515 724C399.572 724 306 630.427 306 515C306 399.572 399.572 306 515 306C630.427 306 724 399.572 724 515Z" stroke="white" stroke-width="4"/>
<rect x="368" y="368" width="294" height="294" stroke="white" stroke-width="4"/>
<path d="M367 3V1027" stroke="white" stroke-width="4" stroke-linecap="square"/>
<path d="M515 2V1026" stroke="white" stroke-width="4" stroke-linecap="square"/>
<path d="M663 2V1026" stroke="white" stroke-width="4" stroke-linecap="square"/>
<path d="M1027 367H3" stroke="white" stroke-width="4" stroke-linecap="square"/>
<path d="M1026 515H2" stroke="white" stroke-width="4" stroke-linecap="square"/>
<path d="M1027 663H3" stroke="white" stroke-width="4" stroke-linecap="square"/>
<path d="M3 3L1027 1027" stroke="white" stroke-width="4" stroke-linecap="square"/>
<path d="M1027 3L3 1027" stroke="white" stroke-width="4" stroke-linecap="square"/>
</g>
<g clip-path="url(#clip0_234_842)">
<path d="M789.159 560.221C782.386 564.308 776.493 566.091 768.47 566.091C736.199 566.091 726.39 516.963 700.714 510.914C715.331 510.558 730.498 501.3 730.498 484.745C730.498 465.873 713.202 458.398 696.263 458.398H673.018C670.861 458.302 668.965 458.151 666.575 458V459.234C670.339 459.344 672.207 461.113 672.51 464.364V540.087C672.152 543.2 670.284 544.901 666.602 545.011V546.245C670.559 545.998 673.155 545.751 677.854 545.751C682.552 545.751 685.272 545.998 689.847 546.245V545.011C685.767 544.887 683.596 542.857 683.596 539.031V511.449H693.584C726.212 511.449 722.475 570.727 760.982 570.727C772.22 570.727 780.6 567.874 790.052 561.469L789.159 560.221ZM683.596 509.844V459.81H695.37C710.88 459.81 719.439 469.247 719.439 484.731C719.439 500.216 710.166 509.831 695.37 509.831H683.596V509.844Z" fill="#1D1D1B"/>
<path d="M234.829 536.329H237.605L269.339 463.898V538.976C269.339 542.871 267.196 544.764 263.047 544.887V546.149C267.705 545.902 270.603 545.642 275.26 545.642C279.918 545.642 282.693 545.889 286.718 546.149V544.887C282.555 544.764 280.426 542.871 280.426 538.976V465.159C280.426 461.264 282.445 459.372 286.471 459.372H286.718V458.123C283.819 458.37 281.937 458.631 278.53 458.631C275.123 458.631 273.241 458.384 269.71 458.123L240.998 523.766L212.285 458.123C209.387 458.37 207.243 458.631 204.097 458.631C200.567 458.617 198.424 458.37 195.017 458.123V459.385H195.264C199.289 459.385 201.309 461.278 201.309 465.173V538.99C201.309 541.884 198.918 543.9 194 544.901V546.163C197.146 545.916 198.918 545.655 202.312 545.655C205.458 545.655 207.353 545.902 210.376 546.163V544.901C205.595 543.9 203.191 541.884 203.191 538.99V464.405L234.802 536.329H234.829Z" fill="#9E1A7E"/>
<path d="M354.35 523.889C354.35 537.467 346.671 544.256 331.174 544.256H317.821C313.919 544.256 311.9 542.871 311.9 540.101V501.245H325.377C329.278 501.245 331.669 504.262 332.424 510.42H334.059C333.812 506.402 333.551 504.262 333.551 500.23C333.551 496.197 333.798 494.072 334.059 490.176H332.424C331.669 496.335 329.278 499.352 325.377 499.352H311.9V466.037C311.9 462.019 313.919 460.002 317.821 460.002H328.784C344.28 460.002 351.96 465.914 351.96 477.86H353.718C353.471 474.088 353.21 471.825 353.21 467.93C353.21 464.035 353.457 462.019 353.718 458.123C341.12 458.123 334.196 458.37 322.354 458.37C310.512 458.37 303.588 458.123 294.521 458.123V459.385H294.768C298.794 459.385 300.813 461.278 300.813 465.173V538.99C300.813 542.885 298.67 544.778 294.521 544.901V546.163C304.096 546.163 311.268 545.916 323.865 545.916H332.562L347.55 546.163H356.246C355.999 541.76 355.738 539.374 355.738 535.095C355.738 530.815 355.985 528.182 356.246 523.903H354.35V523.889Z" fill="#9E1A7E"/>
<path d="M422.436 513.918H385.769L404.109 470.906L422.45 513.918H422.436ZM453.965 546.149V544.901C449.445 544.901 446.175 542.515 444.293 537.879L410.511 458.123H407.503L373.597 537.879C372.086 541.637 368.954 544.023 364.049 544.901V546.149C367.319 545.902 368.816 545.642 371.962 545.642C375.108 545.642 376.991 545.889 379.999 546.149V544.901C376.606 544.27 374.971 542.775 374.971 540.512C374.971 539.634 375.218 538.757 375.603 537.879L385.027 515.811H423.205L432.63 537.879C433.138 539.127 433.385 540.265 433.385 541.143C433.385 543.653 431.379 544.901 427.231 544.901V546.149C432.135 545.902 435.652 545.642 440.79 545.642C446.189 545.642 448.95 545.889 453.978 546.149" fill="#1D1D1B"/>
<path d="M502.597 536.329H505.373L537.107 463.898V538.976C537.107 542.871 534.964 544.764 530.815 544.887V546.149C535.473 545.902 538.371 545.642 543.028 545.642C547.686 545.642 550.461 545.889 554.486 546.149V544.887C550.323 544.764 548.18 542.871 548.18 538.976V465.159C548.18 461.264 550.2 459.372 554.225 459.372H554.472V458.123C551.574 458.37 549.691 458.631 546.284 458.631C542.877 458.631 540.995 458.384 537.465 458.123L508.752 523.766L480.053 458.123C477.155 458.37 475.011 458.631 471.865 458.631C468.335 458.631 466.192 458.384 462.798 458.123V459.385H463.046C467.071 459.385 469.09 461.278 469.09 465.173V538.99C469.09 541.884 466.7 543.9 461.782 544.901V546.163C464.928 545.916 466.7 545.655 470.093 545.655C473.239 545.655 475.135 545.902 478.157 546.163V544.901C473.377 543.9 470.972 541.884 470.972 538.99V464.405L502.584 536.329H502.597Z" fill="#1D1D1B"/>
<path d="M802.471 513.918H765.804L784.145 470.906L802.485 513.918H802.471ZM834 546.149V544.901C829.48 544.901 826.211 542.515 824.328 537.879L790.533 458.123H787.524L753.619 537.879C752.108 541.637 748.975 544.023 744.071 544.901V546.149C747.34 545.902 748.838 545.642 751.984 545.642C755.13 545.642 757.012 545.889 760.021 546.149V544.901C756.627 544.27 754.993 542.775 754.993 540.512C754.993 539.634 755.24 538.757 755.624 537.879L765.049 515.811H803.227L812.651 537.879C813.159 539.127 813.407 540.265 813.407 541.143C813.407 543.653 811.401 544.901 807.252 544.901V546.149C812.157 545.902 815.673 545.642 820.811 545.642C826.211 545.642 828.972 545.889 834 546.149Z" fill="#1D1D1B"/>
<path d="M658.387 478.587C657.453 473.224 655.076 468.602 651.106 464.858C646.833 460.839 641.723 458.713 635.898 458.261C631.144 457.89 626.638 458.768 622.393 460.949C617.544 463.445 613.807 467.148 610.908 471.715C610.798 471.88 610.688 472.058 610.551 472.278C610.427 472.099 610.345 471.99 610.262 471.866C608.957 469.754 607.46 467.779 605.674 466.065C597.568 458.329 588.199 456.08 577.648 460.03C568.513 463.459 562.743 472.058 562.358 481.851C562.221 485.225 562.44 488.585 562.962 491.932C563.663 496.431 565.105 500.669 567.441 504.591C569.68 508.363 572.51 511.641 575.601 514.727C580.217 519.349 585.204 523.56 590.15 527.825C596.483 533.312 602.775 538.825 608.875 544.558C609.424 545.079 609.988 545.601 610.551 546.122C610.688 545.998 610.798 545.889 610.908 545.793C614.714 542.309 618.491 538.784 622.352 535.355C628.026 530.335 633.782 525.398 639.456 520.392C643.234 517.059 646.902 513.575 650.089 509.666C653.18 505.867 655.584 501.684 656.985 496.952C657.878 493.934 658.387 490.848 658.593 487.721C658.799 484.663 658.923 481.618 658.387 478.573V478.587ZM651.202 494.072C651.023 496.719 650.597 499.325 649.842 501.876C648.66 505.867 646.627 509.406 644.003 512.629C641.297 515.948 638.206 518.883 635.005 521.708C630.196 525.946 625.319 530.116 620.525 534.368C617.255 537.262 614.068 540.252 610.853 543.2C610.757 543.283 610.661 543.365 610.551 543.475C610.07 543.022 609.589 542.583 609.136 542.144C603.984 537.289 598.64 532.626 593.296 527.976C589.12 524.355 584.902 520.803 580.987 516.894C578.376 514.288 575.972 511.504 574.076 508.308C572.112 504.989 570.889 501.409 570.285 497.597C569.845 494.771 569.653 491.918 569.776 489.065C570.106 480.768 574.983 473.498 582.718 470.591C591.634 467.244 599.574 469.164 606.429 475.707C607.954 477.16 609.218 478.834 610.331 480.617C610.386 480.726 610.468 480.823 610.565 480.96C610.688 480.781 610.784 480.63 610.867 480.48C613.326 476.612 616.472 473.485 620.58 471.373C624.165 469.535 627.984 468.78 631.996 469.096C636.928 469.48 641.255 471.29 644.869 474.678C648.234 477.846 650.24 481.755 651.037 486.295C651.477 488.86 651.38 491.452 651.215 494.03V494.072H651.202Z" fill="#9E1A7E"/>
</g>
<defs>
<linearGradient id="paint0_linear_234_842" x1="514" y1="2" x2="514" y2="1026" gradientUnits="userSpaceOnUse">
<stop stop-color="white"/>
<stop offset="1" stop-color="white"/>
</linearGradient>
<clipPath id="clip0_234_842">
<rect width="640" height="112.727" fill="white" transform="translate(194 458)"/>
</clipPath>
</defs>
</svg>
