<svg width="13" height="16" viewBox="0 0 13 16" fill="none" xmlns="http://www.w3.org/2000/svg">
<path d="M3.29179 10.0732H9.22651C9.35839 10.0732 9.46917 10.031 9.55885 9.94659C9.64853 9.85691 9.69337 9.74876 9.69337 9.62216C9.69337 9.49555 9.64853 9.39004 9.55885 9.30564C9.46917 9.21596 9.35839 9.17112 9.22651 9.17112H3.29179C3.15991 9.17112 3.04913 9.21596 2.95945 9.30564C2.87504 9.39004 2.83284 9.49555 2.83284 9.62216C2.83284 9.74876 2.87504 9.85691 2.95945 9.94659C3.04913 10.031 3.15991 10.0732 3.29179 10.0732ZM3.29179 12.8744H9.22651C9.35839 12.8744 9.46917 12.8322 9.55885 12.7478C9.64853 12.6634 9.69337 12.5579 9.69337 12.4313C9.69337 12.3046 9.64853 12.1991 9.55885 12.1147C9.46917 12.0251 9.35839 11.9802 9.22651 11.9802H3.29179C3.15991 11.9802 3.04913 12.0251 2.95945 12.1147C2.87504 12.1991 2.83284 12.3046 2.83284 12.4313C2.83284 12.5579 2.87504 12.6634 2.95945 12.7478C3.04913 12.8322 3.15991 12.8744 3.29179 12.8744ZM2.26311 16C1.51401 16 0.949555 15.8075 0.569733 15.4224C0.189911 15.0425 0 14.4728 0 13.7132V2.28684C0 1.5272 0.189911 0.957468 0.569733 0.577646C0.949555 0.192549 1.51401 0 2.26311 0H5.74481V5.45203C5.74481 6.35938 6.20112 6.81306 7.11375 6.81306H12.4946V13.7132C12.4946 14.4728 12.3046 15.0425 11.9248 15.4224C11.5503 15.8075 10.9858 16 10.2315 16H2.26311ZM7.13749 5.85559C6.84735 5.85559 6.70228 5.71316 6.70228 5.42829V0.0870425C6.84998 0.108144 6.99505 0.16881 7.13749 0.269041C7.2852 0.369271 7.43818 0.501154 7.59644 0.664688L11.8299 4.96142C11.9934 5.12496 12.1253 5.28058 12.2255 5.42829C12.3258 5.57072 12.3838 5.71316 12.3996 5.85559H7.13749Z" fill="black"/>
</svg>
