<svg width="16" height="16" viewBox="0 0 16 16" fill="none" xmlns="http://www.w3.org/2000/svg">
<path d="M12.5461 1.09597L15.0406 3.59041C15.4448 3.99464 15.6486 4.40545 15.6519 4.82284C15.6519 5.23693 15.4465 5.64939 15.0356 6.0602L6.20652 14.8893C5.79571 15.3001 5.38161 15.5072 4.96423 15.5105C4.54356 15.5105 4.13111 15.3084 3.72687 14.9041L1.23243 12.4097C0.828193 12.0054 0.626074 11.5963 0.626075 11.1822C0.626075 10.7615 0.83148 10.3458 1.24229 9.93496L10.0763 1.1009C10.4839 0.693373 10.8963 0.491255 11.3137 0.494542C11.7311 0.491255 12.1419 0.691731 12.5461 1.09597ZM2.09513 10.5216L1.74019 10.8765L3.89448 13.0308C3.94706 13.0834 4.00622 13.1097 4.07195 13.1097C4.14097 13.1064 4.20012 13.0801 4.24942 13.0308C4.30529 12.975 4.33158 12.9158 4.32829 12.8534C4.32501 12.7843 4.29707 12.7235 4.24449 12.671L2.09513 10.5216ZM2.99234 9.62438L2.63247 9.98425L3.96842 11.3202C4.02101 11.3728 4.08017 11.3991 4.1459 11.3991C4.21491 11.3958 4.27407 11.3695 4.32336 11.3202C4.37924 11.2643 4.40717 11.2035 4.40717 11.1378C4.40717 11.0721 4.37924 11.0113 4.32336 10.9554L2.99234 9.62438ZM3.88462 8.7321L3.52475 9.09197L4.8607 10.4279C4.91329 10.4805 4.97409 10.5052 5.0431 10.5019C5.11212 10.4986 5.16963 10.4739 5.21564 10.4279C5.27151 10.3721 5.29945 10.3113 5.29945 10.2455C5.29945 10.1798 5.27151 10.119 5.21564 10.0631L3.88462 8.7321ZM4.77197 7.84476L4.4121 8.20462L5.74805 9.54058C5.80064 9.59316 5.86144 9.61781 5.93045 9.61452C5.99947 9.61124 6.05863 9.58495 6.10792 9.53565C6.16051 9.48307 6.1868 9.42391 6.1868 9.35818C6.1868 9.29245 6.15886 9.23165 6.10299 9.17578L4.77197 7.84476ZM5.66425 6.95248L5.30931 7.30742L6.64526 8.64337C6.69785 8.69595 6.757 8.72225 6.82273 8.72225C6.89175 8.71896 6.95091 8.69267 7.0002 8.64337C7.05279 8.59079 7.07908 8.53163 7.07908 8.4659C7.07908 8.40017 7.05114 8.33937 6.99527 8.2835L5.66425 6.95248ZM6.56146 6.05527L6.20159 6.41514L8.35588 8.56942C8.40846 8.62201 8.46762 8.6483 8.53335 8.6483C8.60236 8.64501 8.66152 8.61872 8.71082 8.56942C8.76669 8.51355 8.79462 8.45275 8.79462 8.38702C8.79134 8.31801 8.7634 8.25721 8.71082 8.20462L6.56146 6.05527ZM7.45374 5.16299L7.08894 5.52779L8.42489 6.86374C8.47748 6.91632 8.53828 6.94097 8.60729 6.93769C8.67631 6.9344 8.73547 6.90811 8.78476 6.85881C8.84063 6.80294 8.86857 6.74214 8.86857 6.67641C8.86857 6.61068 8.84063 6.54988 8.78476 6.49401L7.45374 5.16299ZM8.34602 4.27071L7.98615 4.63058L9.3221 5.96653C9.37469 6.01912 9.43384 6.04541 9.49957 6.04541C9.56859 6.04212 9.62774 6.01583 9.67704 5.96653C9.73291 5.91066 9.76085 5.84986 9.76085 5.78413C9.76085 5.7184 9.73291 5.6576 9.67704 5.60173L8.34602 4.27071ZM9.2383 3.37843L8.8735 3.74323L10.2095 5.07918C10.262 5.13177 10.3212 5.15806 10.3869 5.15806C10.4559 5.15477 10.5167 5.12684 10.5693 5.07425C10.6219 5.02167 10.6482 4.96251 10.6482 4.89678C10.6515 4.82777 10.6252 4.76532 10.5693 4.70945L9.2383 3.37843ZM10.1306 2.48615L9.76578 2.85095L11.1017 4.1869C11.1543 4.23949 11.2151 4.26414 11.2841 4.26085C11.3531 4.25756 11.4123 4.23127 11.4616 4.18197C11.5175 4.1261 11.5454 4.0653 11.5454 3.99957C11.5454 3.93384 11.5175 3.87304 11.4616 3.81717L10.1306 2.48615ZM11.0179 1.5988L10.6581 1.95867L12.8123 4.11296C12.8649 4.16554 12.9241 4.19183 12.9898 4.19183C13.0588 4.18855 13.118 4.16225 13.1673 4.11296C13.2232 4.05709 13.2511 3.99629 13.2511 3.93056C13.2478 3.86154 13.2199 3.80074 13.1673 3.74816L11.0179 1.5988Z" fill="#9E1A7E"/>
</svg>
