<svg width="289" height="29" viewBox="0 0 289 29" fill="none" xmlns="http://www.w3.org/2000/svg">
<path d="M5.112 4.97716C5.416 5.02516 5.692 5.14916 5.94 5.34916C6.196 5.54916 6.396 5.79716 6.54 6.09316C6.692 6.38916 6.768 6.70516 6.768 7.04116C6.768 7.46516 6.66 7.84916 6.444 8.19316C6.228 8.52916 5.912 8.79716 5.496 8.99716C5.088 9.18916 4.604 9.28516 4.044 9.28516H0.924V0.921156H3.924C4.492 0.921156 4.976 1.01716 5.376 1.20916C5.776 1.39316 6.076 1.64516 6.276 1.96516C6.476 2.28516 6.576 2.64516 6.576 3.04516C6.576 3.54116 6.44 3.95316 6.168 4.28116C5.904 4.60116 5.552 4.83316 5.112 4.97716ZM2.016 4.53316H3.852C4.364 4.53316 4.76 4.41316 5.04 4.17316C5.32 3.93316 5.46 3.60116 5.46 3.17716C5.46 2.75316 5.32 2.42116 5.04 2.18116C4.76 1.94116 4.356 1.82116 3.828 1.82116H2.016V4.53316ZM3.948 8.38516C4.492 8.38516 4.916 8.25716 5.22 8.00116C5.524 7.74516 5.676 7.38916 5.676 6.93316C5.676 6.46916 5.516 6.10516 5.196 5.84116C4.876 5.56916 4.448 5.43316 3.912 5.43316H2.016V8.38516H3.948ZM13.9474 2.70916L9.98738 12.3812H8.85938L10.1554 9.21316L7.50338 2.70916H8.71538L10.7794 8.03716L12.8194 2.70916H13.9474ZM20.5723 9.39316C20.0683 9.39316 19.6163 9.30916 19.2163 9.14116C18.8163 8.96516 18.5003 8.72516 18.2683 8.42116C18.0363 8.10916 17.9083 7.75316 17.8843 7.35316H19.0123C19.0443 7.68116 19.1963 7.94916 19.4683 8.15716C19.7483 8.36516 20.1123 8.46916 20.5603 8.46916C20.9763 8.46916 21.3043 8.37716 21.5443 8.19316C21.7843 8.00916 21.9043 7.77716 21.9043 7.49716C21.9043 7.20916 21.7763 6.99716 21.5203 6.86116C21.2643 6.71716 20.8683 6.57716 20.3323 6.44116C19.8443 6.31316 19.4443 6.18516 19.1323 6.05716C18.8283 5.92116 18.5643 5.72516 18.3403 5.46916C18.1243 5.20516 18.0163 4.86116 18.0163 4.43716C18.0163 4.10116 18.1163 3.79316 18.3163 3.51316C18.5163 3.23316 18.8003 3.01316 19.1683 2.85316C19.5363 2.68516 19.9563 2.60116 20.4283 2.60116C21.1563 2.60116 21.7443 2.78516 22.1923 3.15316C22.6403 3.52116 22.8803 4.02516 22.9123 4.66516H21.8203C21.7963 4.32116 21.6563 4.04516 21.4003 3.83716C21.1523 3.62916 20.8163 3.52516 20.3923 3.52516C20.0003 3.52516 19.6883 3.60916 19.4563 3.77716C19.2243 3.94516 19.1083 4.16516 19.1083 4.43716C19.1083 4.65316 19.1763 4.83316 19.3123 4.97716C19.4563 5.11316 19.6323 5.22516 19.8403 5.31316C20.0563 5.39316 20.3523 5.48516 20.7283 5.58916C21.2003 5.71716 21.5843 5.84516 21.8803 5.97316C22.1763 6.09316 22.4283 6.27716 22.6363 6.52516C22.8523 6.77316 22.9643 7.09716 22.9723 7.49716C22.9723 7.85716 22.8723 8.18116 22.6723 8.46916C22.4723 8.75716 22.1883 8.98516 21.8203 9.15316C21.4603 9.31316 21.0443 9.39316 20.5723 9.39316ZM25.0778 1.64116C24.8698 1.64116 24.6938 1.56916 24.5498 1.42516C24.4058 1.28116 24.3338 1.10516 24.3338 0.897156C24.3338 0.689156 24.4058 0.513156 24.5498 0.369156C24.6938 0.225156 24.8698 0.153156 25.0778 0.153156C25.2778 0.153156 25.4458 0.225156 25.5818 0.369156C25.7258 0.513156 25.7978 0.689156 25.7978 0.897156C25.7978 1.10516 25.7258 1.28116 25.5818 1.42516C25.4458 1.56916 25.2778 1.64116 25.0778 1.64116ZM25.6058 2.70916V9.28516H24.5138V2.70916H25.6058ZM30.179 2.60116C30.747 2.60116 31.243 2.72516 31.667 2.97316C32.099 3.22116 32.419 3.53316 32.627 3.90916V2.70916H33.731V9.42916C33.731 10.0292 33.603 10.5612 33.347 11.0252C33.091 11.4972 32.723 11.8652 32.243 12.1292C31.771 12.3932 31.219 12.5252 30.587 12.5252C29.723 12.5252 29.003 12.3212 28.427 11.9132C27.851 11.5052 27.511 10.9492 27.407 10.2452H28.487C28.607 10.6452 28.855 10.9652 29.231 11.2052C29.607 11.4532 30.059 11.5772 30.587 11.5772C31.187 11.5772 31.675 11.3892 32.051 11.0132C32.435 10.6372 32.627 10.1092 32.627 9.42916V8.04916C32.411 8.43316 32.091 8.75316 31.667 9.00916C31.243 9.26516 30.747 9.39316 30.179 9.39316C29.595 9.39316 29.063 9.24916 28.583 8.96116C28.111 8.67316 27.739 8.26916 27.467 7.74916C27.195 7.22916 27.059 6.63716 27.059 5.97316C27.059 5.30116 27.195 4.71316 27.467 4.20916C27.739 3.69716 28.111 3.30116 28.583 3.02116C29.063 2.74116 29.595 2.60116 30.179 2.60116ZM32.627 5.98516C32.627 5.48916 32.527 5.05716 32.327 4.68916C32.127 4.32116 31.855 4.04116 31.511 3.84916C31.175 3.64916 30.803 3.54916 30.395 3.54916C29.987 3.54916 29.615 3.64516 29.279 3.83716C28.943 4.02916 28.675 4.30916 28.475 4.67716C28.275 5.04516 28.175 5.47716 28.175 5.97316C28.175 6.47716 28.275 6.91716 28.475 7.29316C28.675 7.66116 28.943 7.94516 29.279 8.14516C29.615 8.33716 29.987 8.43316 30.395 8.43316C30.803 8.43316 31.175 8.33716 31.511 8.14516C31.855 7.94516 32.127 7.66116 32.327 7.29316C32.527 6.91716 32.627 6.48116 32.627 5.98516ZM38.7803 2.58916C39.5803 2.58916 40.2283 2.83316 40.7243 3.32116C41.2203 3.80116 41.4683 4.49716 41.4683 5.40916V9.28516H40.3883V5.56516C40.3883 4.90916 40.2243 4.40916 39.8963 4.06516C39.5683 3.71316 39.1203 3.53716 38.5523 3.53716C37.9763 3.53716 37.5163 3.71716 37.1723 4.07716C36.8363 4.43716 36.6683 4.96116 36.6683 5.64916V9.28516H35.5763V2.70916H36.6683V3.64516C36.8843 3.30916 37.1763 3.04916 37.5443 2.86516C37.9203 2.68116 38.3323 2.58916 38.7803 2.58916ZM43.8161 1.64116C43.6081 1.64116 43.4321 1.56916 43.2881 1.42516C43.1441 1.28116 43.0721 1.10516 43.0721 0.897156C43.0721 0.689156 43.1441 0.513156 43.2881 0.369156C43.4321 0.225156 43.6081 0.153156 43.8161 0.153156C44.0161 0.153156 44.1841 0.225156 44.3201 0.369156C44.4641 0.513156 44.5361 0.689156 44.5361 0.897156C44.5361 1.10516 44.4641 1.28116 44.3201 1.42516C44.1841 1.56916 44.0161 1.64116 43.8161 1.64116ZM44.3441 2.70916V9.28516H43.2521V2.70916H44.3441ZM49.4093 2.58916C50.2093 2.58916 50.8573 2.83316 51.3533 3.32116C51.8493 3.80116 52.0973 4.49716 52.0973 5.40916V9.28516H51.0173V5.56516C51.0173 4.90916 50.8533 4.40916 50.5253 4.06516C50.1973 3.71316 49.7493 3.53716 49.1813 3.53716C48.6053 3.53716 48.1453 3.71716 47.8013 4.07716C47.4653 4.43716 47.2973 4.96116 47.2973 5.64916V9.28516H46.2053V2.70916H47.2973V3.64516C47.5133 3.30916 47.8053 3.04916 48.1733 2.86516C48.5493 2.68116 48.9613 2.58916 49.4093 2.58916ZM56.593 2.60116C57.161 2.60116 57.657 2.72516 58.081 2.97316C58.513 3.22116 58.833 3.53316 59.041 3.90916V2.70916H60.145V9.42916C60.145 10.0292 60.017 10.5612 59.761 11.0252C59.505 11.4972 59.137 11.8652 58.657 12.1292C58.185 12.3932 57.633 12.5252 57.001 12.5252C56.137 12.5252 55.417 12.3212 54.841 11.9132C54.265 11.5052 53.925 10.9492 53.821 10.2452H54.901C55.021 10.6452 55.269 10.9652 55.645 11.2052C56.021 11.4532 56.473 11.5772 57.001 11.5772C57.601 11.5772 58.089 11.3892 58.465 11.0132C58.849 10.6372 59.041 10.1092 59.041 9.42916V8.04916C58.825 8.43316 58.505 8.75316 58.081 9.00916C57.657 9.26516 57.161 9.39316 56.593 9.39316C56.009 9.39316 55.477 9.24916 54.997 8.96116C54.525 8.67316 54.153 8.26916 53.881 7.74916C53.609 7.22916 53.473 6.63716 53.473 5.97316C53.473 5.30116 53.609 4.71316 53.881 4.20916C54.153 3.69716 54.525 3.30116 54.997 3.02116C55.477 2.74116 56.009 2.60116 56.593 2.60116ZM59.041 5.98516C59.041 5.48916 58.941 5.05716 58.741 4.68916C58.541 4.32116 58.269 4.04116 57.925 3.84916C57.589 3.64916 57.217 3.54916 56.809 3.54916C56.401 3.54916 56.029 3.64516 55.693 3.83716C55.357 4.02916 55.089 4.30916 54.889 4.67716C54.689 5.04516 54.589 5.47716 54.589 5.97316C54.589 6.47716 54.689 6.91716 54.889 7.29316C55.089 7.66116 55.357 7.94516 55.693 8.14516C56.029 8.33716 56.401 8.43316 56.809 8.43316C57.217 8.43316 57.589 8.33716 57.925 8.14516C58.269 7.94516 58.541 7.66116 58.741 7.29316C58.941 6.91716 59.041 6.48116 59.041 5.98516ZM71.0216 2.70916V9.28516H69.9296V8.31316C69.7216 8.64916 69.4296 8.91316 69.0536 9.10516C68.6856 9.28916 68.2776 9.38116 67.8296 9.38116C67.3176 9.38116 66.8576 9.27716 66.4496 9.06916C66.0416 8.85316 65.7176 8.53316 65.4776 8.10916C65.2456 7.68516 65.1296 7.16916 65.1296 6.56116V2.70916H66.2096V6.41716C66.2096 7.06516 66.3736 7.56516 66.7016 7.91716C67.0296 8.26116 67.4776 8.43316 68.0456 8.43316C68.6296 8.43316 69.0896 8.25316 69.4256 7.89316C69.7616 7.53316 69.9296 7.00916 69.9296 6.32116V2.70916H71.0216ZM73.9574 3.92116C74.1734 3.54516 74.4934 3.23316 74.9174 2.98516C75.3494 2.72916 75.8494 2.60116 76.4174 2.60116C77.0014 2.60116 77.5294 2.74116 78.0014 3.02116C78.4814 3.30116 78.8574 3.69716 79.1294 4.20916C79.4014 4.71316 79.5374 5.30116 79.5374 5.97316C79.5374 6.63716 79.4014 7.22916 79.1294 7.74916C78.8574 8.26916 78.4814 8.67316 78.0014 8.96116C77.5294 9.24916 77.0014 9.39316 76.4174 9.39316C75.8574 9.39316 75.3614 9.26916 74.9294 9.02116C74.5054 8.76516 74.1814 8.44916 73.9574 8.07316V12.4052H72.8654V2.70916H73.9574V3.92116ZM78.4214 5.97316C78.4214 5.47716 78.3214 5.04516 78.1214 4.67716C77.9214 4.30916 77.6494 4.02916 77.3054 3.83716C76.9694 3.64516 76.5974 3.54916 76.1894 3.54916C75.7894 3.54916 75.4174 3.64916 75.0734 3.84916C74.7374 4.04116 74.4654 4.32516 74.2574 4.70116C74.0574 5.06916 73.9574 5.49716 73.9574 5.98516C73.9574 6.48116 74.0574 6.91716 74.2574 7.29316C74.4654 7.66116 74.7374 7.94516 75.0734 8.14516C75.4174 8.33716 75.7894 8.43316 76.1894 8.43316C76.5974 8.43316 76.9694 8.33716 77.3054 8.14516C77.6494 7.94516 77.9214 7.66116 78.1214 7.29316C78.3214 6.91716 78.4214 6.47716 78.4214 5.97316ZM89.838 2.70916L85.878 12.3812H84.75L86.046 9.21316L83.394 2.70916H84.606L86.67 8.03716L88.71 2.70916H89.838ZM93.8037 9.39316C93.1877 9.39316 92.6277 9.25316 92.1237 8.97316C91.6277 8.69316 91.2357 8.29716 90.9477 7.78516C90.6677 7.26516 90.5277 6.66516 90.5277 5.98516C90.5277 5.31316 90.6717 4.72116 90.9597 4.20916C91.2557 3.68916 91.6557 3.29316 92.1597 3.02116C92.6637 2.74116 93.2277 2.60116 93.8517 2.60116C94.4757 2.60116 95.0397 2.74116 95.5437 3.02116C96.0477 3.29316 96.4437 3.68516 96.7317 4.19716C97.0277 4.70916 97.1757 5.30516 97.1757 5.98516C97.1757 6.66516 97.0237 7.26516 96.7197 7.78516C96.4237 8.29716 96.0197 8.69316 95.5077 8.97316C94.9957 9.25316 94.4277 9.39316 93.8037 9.39316ZM93.8037 8.43316C94.1957 8.43316 94.5637 8.34116 94.9077 8.15716C95.2517 7.97316 95.5277 7.69716 95.7357 7.32916C95.9517 6.96116 96.0597 6.51316 96.0597 5.98516C96.0597 5.45716 95.9557 5.00916 95.7477 4.64116C95.5397 4.27316 95.2677 4.00116 94.9317 3.82516C94.5957 3.64116 94.2317 3.54916 93.8397 3.54916C93.4397 3.54916 93.0717 3.64116 92.7357 3.82516C92.4077 4.00116 92.1437 4.27316 91.9437 4.64116C91.7437 5.00916 91.6437 5.45716 91.6437 5.98516C91.6437 6.52116 91.7397 6.97316 91.9317 7.34116C92.1317 7.70916 92.3957 7.98516 92.7237 8.16916C93.0517 8.34516 93.4117 8.43316 93.8037 8.43316ZM104.444 2.70916V9.28516H103.352V8.31316C103.144 8.64916 102.852 8.91316 102.476 9.10516C102.108 9.28916 101.7 9.38116 101.252 9.38116C100.74 9.38116 100.28 9.27716 99.8715 9.06916C99.4635 8.85316 99.1395 8.53316 98.8995 8.10916C98.6675 7.68516 98.5515 7.16916 98.5515 6.56116V2.70916H99.6315V6.41716C99.6315 7.06516 99.7955 7.56516 100.124 7.91716C100.452 8.26116 100.9 8.43316 101.468 8.43316C102.052 8.43316 102.512 8.25316 102.848 7.89316C103.184 7.53316 103.352 7.00916 103.352 6.32116V2.70916H104.444ZM109.079 5.97316C109.079 5.30116 109.215 4.71316 109.487 4.20916C109.759 3.69716 110.131 3.30116 110.603 3.02116C111.083 2.74116 111.615 2.60116 112.199 2.60116C112.775 2.60116 113.275 2.72516 113.699 2.97316C114.123 3.22116 114.439 3.53316 114.647 3.90916V2.70916H115.751V9.28516H114.647V8.06116C114.431 8.44516 114.107 8.76516 113.675 9.02116C113.251 9.26916 112.755 9.39316 112.187 9.39316C111.603 9.39316 111.075 9.24916 110.603 8.96116C110.131 8.67316 109.759 8.26916 109.487 7.74916C109.215 7.22916 109.079 6.63716 109.079 5.97316ZM114.647 5.98516C114.647 5.48916 114.547 5.05716 114.347 4.68916C114.147 4.32116 113.875 4.04116 113.531 3.84916C113.195 3.64916 112.823 3.54916 112.415 3.54916C112.007 3.54916 111.635 3.64516 111.299 3.83716C110.963 4.02916 110.695 4.30916 110.495 4.67716C110.295 5.04516 110.195 5.47716 110.195 5.97316C110.195 6.47716 110.295 6.91716 110.495 7.29316C110.695 7.66116 110.963 7.94516 111.299 8.14516C111.635 8.33716 112.007 8.43316 112.415 8.43316C112.823 8.43316 113.195 8.33716 113.531 8.14516C113.875 7.94516 114.147 7.66116 114.347 7.29316C114.547 6.91716 114.647 6.48116 114.647 5.98516ZM120.308 2.60116C120.876 2.60116 121.372 2.72516 121.796 2.97316C122.228 3.22116 122.548 3.53316 122.756 3.90916V2.70916H123.86V9.42916C123.86 10.0292 123.732 10.5612 123.476 11.0252C123.22 11.4972 122.852 11.8652 122.372 12.1292C121.9 12.3932 121.348 12.5252 120.716 12.5252C119.852 12.5252 119.132 12.3212 118.556 11.9132C117.98 11.5052 117.64 10.9492 117.536 10.2452H118.616C118.736 10.6452 118.984 10.9652 119.36 11.2052C119.736 11.4532 120.188 11.5772 120.716 11.5772C121.316 11.5772 121.804 11.3892 122.18 11.0132C122.564 10.6372 122.756 10.1092 122.756 9.42916V8.04916C122.54 8.43316 122.22 8.75316 121.796 9.00916C121.372 9.26516 120.876 9.39316 120.308 9.39316C119.724 9.39316 119.192 9.24916 118.712 8.96116C118.24 8.67316 117.868 8.26916 117.596 7.74916C117.324 7.22916 117.188 6.63716 117.188 5.97316C117.188 5.30116 117.324 4.71316 117.596 4.20916C117.868 3.69716 118.24 3.30116 118.712 3.02116C119.192 2.74116 119.724 2.60116 120.308 2.60116ZM122.756 5.98516C122.756 5.48916 122.656 5.05716 122.456 4.68916C122.256 4.32116 121.984 4.04116 121.64 3.84916C121.304 3.64916 120.932 3.54916 120.524 3.54916C120.116 3.54916 119.744 3.64516 119.408 3.83716C119.072 4.02916 118.804 4.30916 118.604 4.67716C118.404 5.04516 118.304 5.47716 118.304 5.97316C118.304 6.47716 118.404 6.91716 118.604 7.29316C118.804 7.66116 119.072 7.94516 119.408 8.14516C119.744 8.33716 120.116 8.43316 120.524 8.43316C120.932 8.43316 121.304 8.33716 121.64 8.14516C121.984 7.94516 122.256 7.66116 122.456 7.29316C122.656 6.91716 122.756 6.48116 122.756 5.98516ZM126.797 3.77716C126.989 3.40116 127.261 3.10916 127.613 2.90116C127.973 2.69316 128.409 2.58916 128.921 2.58916V3.71716H128.633C127.409 3.71716 126.797 4.38116 126.797 5.70916V9.28516H125.705V2.70916H126.797V3.77716ZM136.182 5.74516C136.182 5.95316 136.17 6.17316 136.146 6.40516H130.89C130.93 7.05316 131.15 7.56116 131.55 7.92916C131.958 8.28916 132.45 8.46916 133.026 8.46916C133.498 8.46916 133.89 8.36116 134.202 8.14516C134.522 7.92116 134.746 7.62516 134.874 7.25716H136.05C135.874 7.88916 135.522 8.40516 134.994 8.80516C134.466 9.19716 133.81 9.39316 133.026 9.39316C132.402 9.39316 131.842 9.25316 131.346 8.97316C130.858 8.69316 130.474 8.29716 130.194 7.78516C129.914 7.26516 129.774 6.66516 129.774 5.98516C129.774 5.30516 129.91 4.70916 130.182 4.19716C130.454 3.68516 130.834 3.29316 131.322 3.02116C131.818 2.74116 132.386 2.60116 133.026 2.60116C133.65 2.60116 134.202 2.73716 134.682 3.00916C135.162 3.28116 135.53 3.65716 135.786 4.13716C136.05 4.60916 136.182 5.14516 136.182 5.74516ZM135.054 5.51716C135.054 5.10116 134.962 4.74516 134.778 4.44916C134.594 4.14516 134.342 3.91716 134.022 3.76516C133.71 3.60516 133.362 3.52516 132.978 3.52516C132.426 3.52516 131.954 3.70116 131.562 4.05316C131.178 4.40516 130.958 4.89316 130.902 5.51716H135.054ZM143.623 5.74516C143.623 5.95316 143.611 6.17316 143.587 6.40516H138.331C138.371 7.05316 138.591 7.56116 138.991 7.92916C139.399 8.28916 139.891 8.46916 140.467 8.46916C140.939 8.46916 141.331 8.36116 141.643 8.14516C141.963 7.92116 142.187 7.62516 142.315 7.25716H143.491C143.315 7.88916 142.963 8.40516 142.435 8.80516C141.907 9.19716 141.251 9.39316 140.467 9.39316C139.843 9.39316 139.283 9.25316 138.787 8.97316C138.299 8.69316 137.915 8.29716 137.635 7.78516C137.355 7.26516 137.215 6.66516 137.215 5.98516C137.215 5.30516 137.351 4.70916 137.623 4.19716C137.895 3.68516 138.275 3.29316 138.763 3.02116C139.259 2.74116 139.827 2.60116 140.467 2.60116C141.091 2.60116 141.643 2.73716 142.123 3.00916C142.603 3.28116 142.971 3.65716 143.227 4.13716C143.491 4.60916 143.623 5.14516 143.623 5.74516ZM142.495 5.51716C142.495 5.10116 142.403 4.74516 142.219 4.44916C142.035 4.14516 141.783 3.91716 141.463 3.76516C141.151 3.60516 140.803 3.52516 140.419 3.52516C139.867 3.52516 139.395 3.70116 139.003 4.05316C138.619 4.40516 138.399 4.89316 138.343 5.51716H142.495ZM149.596 3.60916V7.48516C149.596 7.80516 149.664 8.03316 149.8 8.16916C149.936 8.29716 150.172 8.36116 150.508 8.36116H151.312V9.28516H150.328C149.72 9.28516 149.264 9.14516 148.96 8.86516C148.656 8.58516 148.504 8.12516 148.504 7.48516V3.60916H147.652V2.70916H148.504V1.05316H149.596V2.70916H151.312V3.60916H149.596ZM155.503 9.39316C154.887 9.39316 154.327 9.25316 153.823 8.97316C153.327 8.69316 152.935 8.29716 152.647 7.78516C152.367 7.26516 152.227 6.66516 152.227 5.98516C152.227 5.31316 152.371 4.72116 152.659 4.20916C152.955 3.68916 153.355 3.29316 153.859 3.02116C154.363 2.74116 154.927 2.60116 155.551 2.60116C156.175 2.60116 156.739 2.74116 157.243 3.02116C157.747 3.29316 158.143 3.68516 158.431 4.19716C158.727 4.70916 158.875 5.30516 158.875 5.98516C158.875 6.66516 158.723 7.26516 158.419 7.78516C158.123 8.29716 157.719 8.69316 157.207 8.97316C156.695 9.25316 156.127 9.39316 155.503 9.39316ZM155.503 8.43316C155.895 8.43316 156.263 8.34116 156.607 8.15716C156.951 7.97316 157.227 7.69716 157.435 7.32916C157.651 6.96116 157.759 6.51316 157.759 5.98516C157.759 5.45716 157.655 5.00916 157.447 4.64116C157.239 4.27316 156.967 4.00116 156.631 3.82516C156.295 3.64116 155.931 3.54916 155.539 3.54916C155.139 3.54916 154.771 3.64116 154.435 3.82516C154.107 4.00116 153.843 4.27316 153.643 4.64116C153.443 5.00916 153.343 5.45716 153.343 5.98516C153.343 6.52116 153.439 6.97316 153.631 7.34116C153.831 7.70916 154.095 7.98516 154.423 8.16916C154.751 8.34516 155.111 8.43316 155.503 8.43316ZM166.378 9.39316C165.762 9.39316 165.202 9.25316 164.698 8.97316C164.202 8.69316 163.81 8.29716 163.522 7.78516C163.242 7.26516 163.102 6.66516 163.102 5.98516C163.102 5.31316 163.246 4.72116 163.534 4.20916C163.83 3.68916 164.23 3.29316 164.734 3.02116C165.238 2.74116 165.802 2.60116 166.426 2.60116C167.05 2.60116 167.614 2.74116 168.118 3.02116C168.622 3.29316 169.018 3.68516 169.306 4.19716C169.602 4.70916 169.75 5.30516 169.75 5.98516C169.75 6.66516 169.598 7.26516 169.294 7.78516C168.998 8.29716 168.594 8.69316 168.082 8.97316C167.57 9.25316 167.002 9.39316 166.378 9.39316ZM166.378 8.43316C166.77 8.43316 167.138 8.34116 167.482 8.15716C167.826 7.97316 168.102 7.69716 168.31 7.32916C168.526 6.96116 168.634 6.51316 168.634 5.98516C168.634 5.45716 168.53 5.00916 168.322 4.64116C168.114 4.27316 167.842 4.00116 167.506 3.82516C167.17 3.64116 166.806 3.54916 166.414 3.54916C166.014 3.54916 165.646 3.64116 165.31 3.82516C164.982 4.00116 164.718 4.27316 164.518 4.64116C164.318 5.00916 164.218 5.45716 164.218 5.98516C164.218 6.52116 164.314 6.97316 164.506 7.34116C164.706 7.70916 164.97 7.98516 165.298 8.16916C165.626 8.34516 165.986 8.43316 166.378 8.43316ZM177.018 2.70916V9.28516H175.926V8.31316C175.718 8.64916 175.426 8.91316 175.05 9.10516C174.682 9.28916 174.274 9.38116 173.826 9.38116C173.314 9.38116 172.854 9.27716 172.446 9.06916C172.038 8.85316 171.714 8.53316 171.474 8.10916C171.242 7.68516 171.126 7.16916 171.126 6.56116V2.70916H172.206V6.41716C172.206 7.06516 172.37 7.56516 172.698 7.91716C173.026 8.26116 173.474 8.43316 174.042 8.43316C174.626 8.43316 175.086 8.25316 175.422 7.89316C175.758 7.53316 175.926 7.00916 175.926 6.32116V2.70916H177.018ZM179.954 3.77716C180.146 3.40116 180.418 3.10916 180.77 2.90116C181.13 2.69316 181.566 2.58916 182.078 2.58916V3.71716H181.79C180.566 3.71716 179.954 4.38116 179.954 5.70916V9.28516H178.862V2.70916H179.954V3.77716ZM266.204 5.97316C266.204 5.30116 266.34 4.71316 266.612 4.20916C266.884 3.69716 267.256 3.30116 267.728 3.02116C268.208 2.74116 268.74 2.60116 269.324 2.60116C269.9 2.60116 270.4 2.72516 270.824 2.97316C271.248 3.22116 271.564 3.53316 271.772 3.90916V2.70916H272.876V9.28516H271.772V8.06116C271.556 8.44516 271.232 8.76516 270.8 9.02116C270.376 9.26916 269.88 9.39316 269.312 9.39316C268.728 9.39316 268.2 9.24916 267.728 8.96116C267.256 8.67316 266.884 8.26916 266.612 7.74916C266.34 7.22916 266.204 6.63716 266.204 5.97316ZM271.772 5.98516C271.772 5.48916 271.672 5.05716 271.472 4.68916C271.272 4.32116 271 4.04116 270.656 3.84916C270.32 3.64916 269.948 3.54916 269.54 3.54916C269.132 3.54916 268.76 3.64516 268.424 3.83716C268.088 4.02916 267.82 4.30916 267.62 4.67716C267.42 5.04516 267.32 5.47716 267.32 5.97316C267.32 6.47716 267.42 6.91716 267.62 7.29316C267.82 7.66116 268.088 7.94516 268.424 8.14516C268.76 8.33716 269.132 8.43316 269.54 8.43316C269.948 8.43316 270.32 8.33716 270.656 8.14516C271 7.94516 271.272 7.66116 271.472 7.29316C271.672 6.91716 271.772 6.48116 271.772 5.98516ZM277.925 2.58916C278.725 2.58916 279.373 2.83316 279.869 3.32116C280.365 3.80116 280.613 4.49716 280.613 5.40916V9.28516H279.533V5.56516C279.533 4.90916 279.369 4.40916 279.041 4.06516C278.713 3.71316 278.265 3.53716 277.697 3.53716C277.121 3.53716 276.661 3.71716 276.317 4.07716C275.981 4.43716 275.813 4.96116 275.813 5.64916V9.28516H274.721V2.70916H275.813V3.64516C276.029 3.30916 276.321 3.04916 276.689 2.86516C277.065 2.68116 277.477 2.58916 277.925 2.58916ZM281.989 5.97316C281.989 5.30116 282.125 4.71316 282.397 4.20916C282.669 3.69716 283.041 3.30116 283.513 3.02116C283.993 2.74116 284.529 2.60116 285.121 2.60116C285.633 2.60116 286.109 2.72116 286.549 2.96116C286.989 3.19316 287.325 3.50116 287.557 3.88516V0.405156H288.661V9.28516H287.557V8.04916C287.341 8.44116 287.021 8.76516 286.597 9.02116C286.173 9.26916 285.677 9.39316 285.109 9.39316C284.525 9.39316 283.993 9.24916 283.513 8.96116C283.041 8.67316 282.669 8.26916 282.397 7.74916C282.125 7.22916 281.989 6.63716 281.989 5.97316ZM287.557 5.98516C287.557 5.48916 287.457 5.05716 287.257 4.68916C287.057 4.32116 286.785 4.04116 286.441 3.84916C286.105 3.64916 285.733 3.54916 285.325 3.54916C284.917 3.54916 284.545 3.64516 284.209 3.83716C283.873 4.02916 283.605 4.30916 283.405 4.67716C283.205 5.04516 283.105 5.47716 283.105 5.97316C283.105 6.47716 283.205 6.91716 283.405 7.29316C283.605 7.66116 283.873 7.94516 284.209 8.14516C284.545 8.33716 284.917 8.43316 285.325 8.43316C285.733 8.43316 286.105 8.33716 286.441 8.14516C286.785 7.94516 287.057 7.66116 287.257 7.29316C287.457 6.91716 287.557 6.48116 287.557 5.98516Z" fill="black"/>
<path d="M191.685 0.921156V1.80916H189.405V9.28516H188.313V1.80916H186.021V0.921156H191.685ZM199.029 5.74516C199.029 5.95316 199.017 6.17316 198.993 6.40516H193.737C193.777 7.05316 193.997 7.56116 194.397 7.92916C194.805 8.28916 195.297 8.46916 195.873 8.46916C196.345 8.46916 196.737 8.36116 197.049 8.14516C197.369 7.92116 197.593 7.62516 197.721 7.25716H198.897C198.721 7.88916 198.369 8.40516 197.841 8.80516C197.313 9.19716 196.657 9.39316 195.873 9.39316C195.249 9.39316 194.689 9.25316 194.193 8.97316C193.705 8.69316 193.321 8.29716 193.041 7.78516C192.761 7.26516 192.621 6.66516 192.621 5.98516C192.621 5.30516 192.757 4.70916 193.029 4.19716C193.301 3.68516 193.681 3.29316 194.169 3.02116C194.665 2.74116 195.233 2.60116 195.873 2.60116C196.497 2.60116 197.049 2.73716 197.529 3.00916C198.009 3.28116 198.377 3.65716 198.633 4.13716C198.897 4.60916 199.029 5.14516 199.029 5.74516ZM197.901 5.51716C197.901 5.10116 197.809 4.74516 197.625 4.44916C197.441 4.14516 197.189 3.91716 196.869 3.76516C196.557 3.60516 196.209 3.52516 195.825 3.52516C195.273 3.52516 194.801 3.70116 194.409 4.05316C194.025 4.40516 193.805 4.89316 193.749 5.51716H197.901ZM201.563 3.77716C201.755 3.40116 202.027 3.10916 202.379 2.90116C202.739 2.69316 203.175 2.58916 203.687 2.58916V3.71716H203.399C202.175 3.71716 201.563 4.38116 201.563 5.70916V9.28516H200.471V2.70916H201.563V3.77716ZM212.855 2.58916C213.367 2.58916 213.823 2.69716 214.223 2.91316C214.623 3.12116 214.939 3.43716 215.171 3.86116C215.403 4.28516 215.519 4.80116 215.519 5.40916V9.28516H214.439V5.56516C214.439 4.90916 214.275 4.40916 213.947 4.06516C213.627 3.71316 213.191 3.53716 212.639 3.53716C212.071 3.53716 211.619 3.72116 211.283 4.08916C210.947 4.44916 210.779 4.97316 210.779 5.66116V9.28516H209.699V5.56516C209.699 4.90916 209.535 4.40916 209.207 4.06516C208.887 3.71316 208.451 3.53716 207.899 3.53716C207.331 3.53716 206.879 3.72116 206.543 4.08916C206.207 4.44916 206.039 4.97316 206.039 5.66116V9.28516H204.947V2.70916H206.039V3.65716C206.255 3.31316 206.543 3.04916 206.903 2.86516C207.271 2.68116 207.675 2.58916 208.115 2.58916C208.667 2.58916 209.155 2.71316 209.579 2.96116C210.003 3.20916 210.319 3.57316 210.527 4.05316C210.711 3.58916 211.015 3.22916 211.439 2.97316C211.863 2.71716 212.335 2.58916 212.855 2.58916ZM219.639 9.39316C219.135 9.39316 218.683 9.30916 218.283 9.14116C217.883 8.96516 217.567 8.72516 217.335 8.42116C217.103 8.10916 216.975 7.75316 216.951 7.35316H218.079C218.111 7.68116 218.263 7.94916 218.535 8.15716C218.815 8.36516 219.179 8.46916 219.627 8.46916C220.043 8.46916 220.371 8.37716 220.611 8.19316C220.851 8.00916 220.971 7.77716 220.971 7.49716C220.971 7.20916 220.843 6.99716 220.587 6.86116C220.331 6.71716 219.935 6.57716 219.399 6.44116C218.911 6.31316 218.511 6.18516 218.199 6.05716C217.895 5.92116 217.631 5.72516 217.407 5.46916C217.191 5.20516 217.083 4.86116 217.083 4.43716C217.083 4.10116 217.183 3.79316 217.383 3.51316C217.583 3.23316 217.867 3.01316 218.235 2.85316C218.603 2.68516 219.023 2.60116 219.495 2.60116C220.223 2.60116 220.811 2.78516 221.259 3.15316C221.707 3.52116 221.947 4.02516 221.979 4.66516H220.887C220.863 4.32116 220.723 4.04516 220.467 3.83716C220.219 3.62916 219.883 3.52516 219.459 3.52516C219.067 3.52516 218.755 3.60916 218.523 3.77716C218.291 3.94516 218.175 4.16516 218.175 4.43716C218.175 4.65316 218.243 4.83316 218.379 4.97716C218.523 5.11316 218.699 5.22516 218.907 5.31316C219.123 5.39316 219.419 5.48516 219.795 5.58916C220.267 5.71716 220.651 5.84516 220.947 5.97316C221.243 6.09316 221.495 6.27716 221.703 6.52516C221.919 6.77316 222.031 7.09716 222.039 7.49716C222.039 7.85716 221.939 8.18116 221.739 8.46916C221.539 8.75716 221.255 8.98516 220.887 9.15316C220.527 9.31316 220.111 9.39316 219.639 9.39316ZM229.647 9.39316C229.031 9.39316 228.471 9.25316 227.967 8.97316C227.471 8.69316 227.079 8.29716 226.791 7.78516C226.511 7.26516 226.371 6.66516 226.371 5.98516C226.371 5.31316 226.515 4.72116 226.803 4.20916C227.099 3.68916 227.499 3.29316 228.003 3.02116C228.507 2.74116 229.071 2.60116 229.695 2.60116C230.319 2.60116 230.883 2.74116 231.387 3.02116C231.891 3.29316 232.287 3.68516 232.575 4.19716C232.871 4.70916 233.019 5.30516 233.019 5.98516C233.019 6.66516 232.867 7.26516 232.563 7.78516C232.267 8.29716 231.863 8.69316 231.351 8.97316C230.839 9.25316 230.271 9.39316 229.647 9.39316ZM229.647 8.43316C230.039 8.43316 230.407 8.34116 230.751 8.15716C231.095 7.97316 231.371 7.69716 231.579 7.32916C231.795 6.96116 231.903 6.51316 231.903 5.98516C231.903 5.45716 231.799 5.00916 231.591 4.64116C231.383 4.27316 231.111 4.00116 230.775 3.82516C230.439 3.64116 230.075 3.54916 229.683 3.54916C229.283 3.54916 228.915 3.64116 228.579 3.82516C228.251 4.00116 227.987 4.27316 227.787 4.64116C227.587 5.00916 227.487 5.45716 227.487 5.98516C227.487 6.52116 227.583 6.97316 227.775 7.34116C227.975 7.70916 228.239 7.98516 228.567 8.16916C228.895 8.34516 229.255 8.43316 229.647 8.43316ZM237.131 3.60916H235.751V9.28516H234.659V3.60916H233.807V2.70916H234.659V2.24116C234.659 1.50516 234.847 0.969156 235.223 0.633156C235.607 0.289156 236.219 0.117156 237.059 0.117156V1.02916C236.579 1.02916 236.239 1.12516 236.039 1.31716C235.847 1.50116 235.751 1.80916 235.751 2.24116V2.70916H237.131V3.60916ZM242.672 0.921156V6.21316C242.672 6.95716 242.852 7.50916 243.212 7.86916C243.58 8.22916 244.088 8.40916 244.736 8.40916C245.376 8.40916 245.876 8.22916 246.236 7.86916C246.604 7.50916 246.788 6.95716 246.788 6.21316V0.921156H247.88V6.20116C247.88 6.89716 247.74 7.48516 247.46 7.96516C247.18 8.43716 246.8 8.78916 246.32 9.02116C245.848 9.25316 245.316 9.36916 244.724 9.36916C244.132 9.36916 243.596 9.25316 243.116 9.02116C242.644 8.78916 242.268 8.43716 241.988 7.96516C241.716 7.48516 241.58 6.89716 241.58 6.20116V0.921156H242.672ZM252.029 9.39316C251.525 9.39316 251.073 9.30916 250.673 9.14116C250.273 8.96516 249.957 8.72516 249.725 8.42116C249.493 8.10916 249.365 7.75316 249.341 7.35316H250.469C250.501 7.68116 250.653 7.94916 250.925 8.15716C251.205 8.36516 251.569 8.46916 252.017 8.46916C252.433 8.46916 252.761 8.37716 253.001 8.19316C253.241 8.00916 253.361 7.77716 253.361 7.49716C253.361 7.20916 253.233 6.99716 252.977 6.86116C252.721 6.71716 252.325 6.57716 251.789 6.44116C251.301 6.31316 250.901 6.18516 250.589 6.05716C250.285 5.92116 250.021 5.72516 249.797 5.46916C249.581 5.20516 249.473 4.86116 249.473 4.43716C249.473 4.10116 249.573 3.79316 249.773 3.51316C249.973 3.23316 250.257 3.01316 250.625 2.85316C250.993 2.68516 251.413 2.60116 251.885 2.60116C252.613 2.60116 253.201 2.78516 253.649 3.15316C254.097 3.52116 254.337 4.02516 254.369 4.66516H253.277C253.253 4.32116 253.113 4.04516 252.857 3.83716C252.609 3.62916 252.273 3.52516 251.849 3.52516C251.457 3.52516 251.145 3.60916 250.913 3.77716C250.681 3.94516 250.565 4.16516 250.565 4.43716C250.565 4.65316 250.633 4.83316 250.769 4.97716C250.913 5.11316 251.089 5.22516 251.297 5.31316C251.513 5.39316 251.809 5.48516 252.185 5.58916C252.657 5.71716 253.041 5.84516 253.337 5.97316C253.633 6.09316 253.885 6.27716 254.093 6.52516C254.309 6.77316 254.421 7.09716 254.429 7.49716C254.429 7.85716 254.329 8.18116 254.129 8.46916C253.929 8.75716 253.645 8.98516 253.277 9.15316C252.917 9.31316 252.501 9.39316 252.029 9.39316ZM261.971 5.74516C261.971 5.95316 261.959 6.17316 261.935 6.40516H256.679C256.719 7.05316 256.939 7.56116 257.339 7.92916C257.747 8.28916 258.239 8.46916 258.815 8.46916C259.287 8.46916 259.679 8.36116 259.991 8.14516C260.311 7.92116 260.535 7.62516 260.663 7.25716H261.839C261.663 7.88916 261.311 8.40516 260.783 8.80516C260.255 9.19716 259.599 9.39316 258.815 9.39316C258.191 9.39316 257.631 9.25316 257.135 8.97316C256.647 8.69316 256.263 8.29716 255.983 7.78516C255.703 7.26516 255.563 6.66516 255.563 5.98516C255.563 5.30516 255.699 4.70916 255.971 4.19716C256.243 3.68516 256.623 3.29316 257.111 3.02116C257.607 2.74116 258.175 2.60116 258.815 2.60116C259.439 2.60116 259.991 2.73716 260.471 3.00916C260.951 3.28116 261.319 3.65716 261.575 4.13716C261.839 4.60916 261.971 5.14516 261.971 5.74516ZM260.843 5.51716C260.843 5.10116 260.751 4.74516 260.567 4.44916C260.383 4.14516 260.131 3.91716 259.811 3.76516C259.499 3.60516 259.151 3.52516 258.767 3.52516C258.215 3.52516 257.743 3.70116 257.351 4.05316C256.967 4.40516 256.747 4.89316 256.691 5.51716H260.843ZM6.516 19.3692C6.516 20.0652 6.276 20.6452 5.796 21.1092C5.324 21.5652 4.6 21.7932 3.624 21.7932H2.016V25.2852H0.924V16.9212H3.624C4.568 16.9212 5.284 17.1492 5.772 17.6052C6.268 18.0612 6.516 18.6492 6.516 19.3692ZM3.624 20.8932C4.232 20.8932 4.68 20.7612 4.968 20.4972C5.256 20.2332 5.4 19.8572 5.4 19.3692C5.4 18.3372 4.808 17.8212 3.624 17.8212H2.016V20.8932H3.624ZM8.96522 19.7772C9.15722 19.4012 9.42922 19.1092 9.78122 18.9012C10.1412 18.6932 10.5772 18.5892 11.0892 18.5892V19.7172H10.8012C9.57722 19.7172 8.96522 20.3812 8.96522 21.7092V25.2852H7.87322V18.7092H8.96522V19.7772ZM12.9138 17.6412C12.7058 17.6412 12.5298 17.5692 12.3858 17.4252C12.2418 17.2812 12.1698 17.1052 12.1698 16.8972C12.1698 16.6892 12.2418 16.5132 12.3858 16.3692C12.5298 16.2252 12.7058 16.1532 12.9138 16.1532C13.1138 16.1532 13.2818 16.2252 13.4178 16.3692C13.5618 16.5132 13.6338 16.6892 13.6338 16.8972C13.6338 17.1052 13.5618 17.2812 13.4178 17.4252C13.2818 17.5692 13.1138 17.6412 12.9138 17.6412ZM13.4418 18.7092V25.2852H12.3498V18.7092H13.4418ZM17.7509 24.2772L19.7909 18.7092H20.9549L18.3749 25.2852H17.1029L14.5229 18.7092H15.6989L17.7509 24.2772ZM21.6215 21.9732C21.6215 21.3012 21.7575 20.7132 22.0295 20.2092C22.3015 19.6972 22.6735 19.3012 23.1455 19.0212C23.6255 18.7412 24.1575 18.6012 24.7415 18.6012C25.3175 18.6012 25.8175 18.7252 26.2415 18.9732C26.6655 19.2212 26.9815 19.5332 27.1895 19.9092V18.7092H28.2935V25.2852H27.1895V24.0612C26.9735 24.4452 26.6495 24.7652 26.2175 25.0212C25.7935 25.2692 25.2975 25.3932 24.7295 25.3932C24.1455 25.3932 23.6175 25.2492 23.1455 24.9612C22.6735 24.6732 22.3015 24.2692 22.0295 23.7492C21.7575 23.2292 21.6215 22.6372 21.6215 21.9732ZM27.1895 21.9852C27.1895 21.4892 27.0895 21.0572 26.8895 20.6892C26.6895 20.3212 26.4175 20.0412 26.0735 19.8492C25.7375 19.6492 25.3655 19.5492 24.9575 19.5492C24.5495 19.5492 24.1775 19.6452 23.8415 19.8372C23.5055 20.0292 23.2375 20.3092 23.0375 20.6772C22.8375 21.0452 22.7375 21.4772 22.7375 21.9732C22.7375 22.4772 22.8375 22.9172 23.0375 23.2932C23.2375 23.6612 23.5055 23.9452 23.8415 24.1452C24.1775 24.3372 24.5495 24.4332 24.9575 24.4332C25.3655 24.4332 25.7375 24.3372 26.0735 24.1452C26.4175 23.9452 26.6895 23.6612 26.8895 23.2932C27.0895 22.9172 27.1895 22.4812 27.1895 21.9852ZM29.7308 21.9852C29.7308 21.3052 29.8668 20.7132 30.1388 20.2092C30.4108 19.6972 30.7868 19.3012 31.2668 19.0212C31.7548 18.7412 32.3108 18.6012 32.9348 18.6012C33.7428 18.6012 34.4068 18.7972 34.9268 19.1892C35.4548 19.5812 35.8028 20.1252 35.9708 20.8212H34.7948C34.6828 20.4212 34.4628 20.1052 34.1348 19.8732C33.8148 19.6412 33.4148 19.5252 32.9348 19.5252C32.3108 19.5252 31.8068 19.7412 31.4228 20.1732C31.0388 20.5972 30.8468 21.2012 30.8468 21.9852C30.8468 22.7772 31.0388 23.3892 31.4228 23.8212C31.8068 24.2532 32.3108 24.4692 32.9348 24.4692C33.4148 24.4692 33.8148 24.3572 34.1348 24.1332C34.4548 23.9092 34.6748 23.5892 34.7948 23.1732H35.9708C35.7948 23.8452 35.4428 24.3852 34.9148 24.7932C34.3868 25.1932 33.7268 25.3932 32.9348 25.3932C32.3108 25.3932 31.7548 25.2532 31.2668 24.9732C30.7868 24.6932 30.4108 24.2972 30.1388 23.7852C29.8668 23.2732 29.7308 22.6732 29.7308 21.9852ZM43.0919 18.7092L39.1319 28.3812H38.0039L39.2999 25.2132L36.6479 18.7092H37.8599L39.9239 24.0372L41.9639 18.7092H43.0919ZM52.9808 19.3692C52.9808 20.0652 52.7408 20.6452 52.2608 21.1092C51.7888 21.5652 51.0648 21.7932 50.0888 21.7932H48.4808V25.2852H47.3888V16.9212H50.0888C51.0328 16.9212 51.7488 17.1492 52.2368 17.6052C52.7328 18.0612 52.9808 18.6492 52.9808 19.3692ZM50.0888 20.8932C50.6968 20.8932 51.1448 20.7612 51.4328 20.4972C51.7208 20.2332 51.8648 19.8572 51.8648 19.3692C51.8648 18.3372 51.2728 17.8212 50.0888 17.8212H48.4808V20.8932H50.0888ZM57.2061 25.3932C56.5901 25.3932 56.0301 25.2532 55.5261 24.9732C55.0301 24.6932 54.6381 24.2972 54.3501 23.7852C54.0701 23.2652 53.9301 22.6652 53.9301 21.9852C53.9301 21.3132 54.0741 20.7212 54.3621 20.2092C54.6581 19.6892 55.0581 19.2932 55.5621 19.0212C56.0661 18.7412 56.6301 18.6012 57.2541 18.6012C57.8781 18.6012 58.4421 18.7412 58.9461 19.0212C59.4501 19.2932 59.8461 19.6852 60.1341 20.1972C60.4301 20.7092 60.5781 21.3052 60.5781 21.9852C60.5781 22.6652 60.4261 23.2652 60.1221 23.7852C59.8261 24.2972 59.4221 24.6932 58.9101 24.9732C58.3981 25.2532 57.8301 25.3932 57.2061 25.3932ZM57.2061 24.4332C57.5981 24.4332 57.9661 24.3412 58.3101 24.1572C58.6541 23.9732 58.9301 23.6972 59.1381 23.3292C59.3541 22.9612 59.4621 22.5132 59.4621 21.9852C59.4621 21.4572 59.3581 21.0092 59.1501 20.6412C58.9421 20.2732 58.6701 20.0012 58.3341 19.8252C57.9981 19.6412 57.6341 19.5492 57.2421 19.5492C56.8421 19.5492 56.4741 19.6412 56.1381 19.8252C55.8101 20.0012 55.5461 20.2732 55.3461 20.6412C55.1461 21.0092 55.0461 21.4572 55.0461 21.9852C55.0461 22.5212 55.1421 22.9732 55.3341 23.3412C55.5341 23.7092 55.7981 23.9852 56.1261 24.1692C56.4541 24.3452 56.8141 24.4332 57.2061 24.4332ZM63.1058 16.4052V25.2852H62.0138V16.4052H63.1058ZM65.531 17.6412C65.323 17.6412 65.147 17.5692 65.003 17.4252C64.859 17.2812 64.787 17.1052 64.787 16.8972C64.787 16.6892 64.859 16.5132 65.003 16.3692C65.147 16.2252 65.323 16.1532 65.531 16.1532C65.731 16.1532 65.899 16.2252 66.035 16.3692C66.179 16.5132 66.251 16.6892 66.251 16.8972C66.251 17.1052 66.179 17.2812 66.035 17.4252C65.899 17.5692 65.731 17.6412 65.531 17.6412ZM66.059 18.7092V25.2852H64.967V18.7092H66.059ZM67.5121 21.9852C67.5121 21.3052 67.6481 20.7132 67.9201 20.2092C68.1921 19.6972 68.5681 19.3012 69.0481 19.0212C69.5361 18.7412 70.0921 18.6012 70.7161 18.6012C71.5241 18.6012 72.1881 18.7972 72.7081 19.1892C73.2361 19.5812 73.5841 20.1252 73.7521 20.8212H72.5761C72.4641 20.4212 72.2441 20.1052 71.9161 19.8732C71.5961 19.6412 71.1961 19.5252 70.7161 19.5252C70.0921 19.5252 69.5881 19.7412 69.2041 20.1732C68.8201 20.5972 68.6281 21.2012 68.6281 21.9852C68.6281 22.7772 68.8201 23.3892 69.2041 23.8212C69.5881 24.2532 70.0921 24.4692 70.7161 24.4692C71.1961 24.4692 71.5961 24.3572 71.9161 24.1332C72.2361 23.9092 72.4561 23.5892 72.5761 23.1732H73.7521C73.5761 23.8452 73.2241 24.3852 72.6961 24.7932C72.1681 25.1932 71.5081 25.3932 70.7161 25.3932C70.0921 25.3932 69.5361 25.2532 69.0481 24.9732C68.5681 24.6932 68.1921 24.2972 67.9201 23.7852C67.6481 23.2732 67.5121 22.6732 67.5121 21.9852ZM80.8732 18.7092L76.9132 28.3812H75.7852L77.0812 25.2132L74.4292 18.7092H75.6412L77.7052 24.0372L79.7452 18.7092H80.8732Z" fill="#9E1A7E"/>
<path d="M185.613 10.4852H262.488V11.0852H185.613V10.4852ZM0 26.4852H81.0412V27.0852H0V26.4852Z" fill="#9E1A7E"/>
</svg>
