<svg width="284" height="30" viewBox="0 0 284 30" fill="none" xmlns="http://www.w3.org/2000/svg">
<path d="M5.112 5.692C5.416 5.74 5.692 5.864 5.94 6.064C6.196 6.264 6.396 6.512 6.54 6.808C6.692 7.104 6.768 7.42 6.768 7.756C6.768 8.18 6.66 8.564 6.444 8.908C6.228 9.244 5.912 9.512 5.496 9.712C5.088 9.904 4.604 10 4.044 10H0.924V1.636H3.924C4.492 1.636 4.976 1.732 5.376 1.924C5.776 2.108 6.076 2.36 6.276 2.68C6.476 3 6.576 3.36 6.576 3.76C6.576 4.256 6.44 4.668 6.168 4.996C5.904 5.316 5.552 5.548 5.112 5.692ZM2.016 5.248H3.852C4.364 5.248 4.76 5.128 5.04 4.888C5.32 4.648 5.46 4.316 5.46 3.892C5.46 3.468 5.32 3.136 5.04 2.896C4.76 2.656 4.356 2.536 3.828 2.536H2.016V5.248ZM3.948 9.1C4.492 9.1 4.916 8.972 5.22 8.716C5.524 8.46 5.676 8.104 5.676 7.648C5.676 7.184 5.516 6.82 5.196 6.556C4.876 6.284 4.448 6.148 3.912 6.148H2.016V9.1H3.948ZM13.9474 3.424L9.98738 13.096H8.85938L10.1554 9.928L7.50338 3.424H8.71538L10.7794 8.752L12.8194 3.424H13.9474ZM20.5723 10.108C20.0683 10.108 19.6163 10.024 19.2163 9.856C18.8163 9.68 18.5003 9.44 18.2683 9.136C18.0363 8.824 17.9083 8.468 17.8843 8.068H19.0123C19.0443 8.396 19.1963 8.664 19.4683 8.872C19.7483 9.08 20.1123 9.184 20.5603 9.184C20.9763 9.184 21.3043 9.092 21.5443 8.908C21.7843 8.724 21.9043 8.492 21.9043 8.212C21.9043 7.924 21.7763 7.712 21.5203 7.576C21.2643 7.432 20.8683 7.292 20.3323 7.156C19.8443 7.028 19.4443 6.9 19.1323 6.772C18.8283 6.636 18.5643 6.44 18.3403 6.184C18.1243 5.92 18.0163 5.576 18.0163 5.152C18.0163 4.816 18.1163 4.508 18.3163 4.228C18.5163 3.948 18.8003 3.728 19.1683 3.568C19.5363 3.4 19.9563 3.316 20.4283 3.316C21.1563 3.316 21.7443 3.5 22.1923 3.868C22.6403 4.236 22.8803 4.74 22.9123 5.38H21.8203C21.7963 5.036 21.6563 4.76 21.4003 4.552C21.1523 4.344 20.8163 4.24 20.3923 4.24C20.0003 4.24 19.6883 4.324 19.4563 4.492C19.2243 4.66 19.1083 4.88 19.1083 5.152C19.1083 5.368 19.1763 5.548 19.3123 5.692C19.4563 5.828 19.6323 5.94 19.8403 6.028C20.0563 6.108 20.3523 6.2 20.7283 6.304C21.2003 6.432 21.5843 6.56 21.8803 6.688C22.1763 6.808 22.4283 6.992 22.6363 7.24C22.8523 7.488 22.9643 7.812 22.9723 8.212C22.9723 8.572 22.8723 8.896 22.6723 9.184C22.4723 9.472 22.1883 9.7 21.8203 9.868C21.4603 10.028 21.0443 10.108 20.5723 10.108ZM25.0778 2.356C24.8698 2.356 24.6938 2.284 24.5498 2.14C24.4058 1.996 24.3338 1.82 24.3338 1.612C24.3338 1.404 24.4058 1.228 24.5498 1.084C24.6938 0.94 24.8698 0.868 25.0778 0.868C25.2778 0.868 25.4458 0.94 25.5818 1.084C25.7258 1.228 25.7978 1.404 25.7978 1.612C25.7978 1.82 25.7258 1.996 25.5818 2.14C25.4458 2.284 25.2778 2.356 25.0778 2.356ZM25.6058 3.424V10H24.5138V3.424H25.6058ZM30.179 3.316C30.747 3.316 31.243 3.44 31.667 3.688C32.099 3.936 32.419 4.248 32.627 4.624V3.424H33.731V10.144C33.731 10.744 33.603 11.276 33.347 11.74C33.091 12.212 32.723 12.58 32.243 12.844C31.771 13.108 31.219 13.24 30.587 13.24C29.723 13.24 29.003 13.036 28.427 12.628C27.851 12.22 27.511 11.664 27.407 10.96H28.487C28.607 11.36 28.855 11.68 29.231 11.92C29.607 12.168 30.059 12.292 30.587 12.292C31.187 12.292 31.675 12.104 32.051 11.728C32.435 11.352 32.627 10.824 32.627 10.144V8.764C32.411 9.148 32.091 9.468 31.667 9.724C31.243 9.98 30.747 10.108 30.179 10.108C29.595 10.108 29.063 9.964 28.583 9.676C28.111 9.388 27.739 8.984 27.467 8.464C27.195 7.944 27.059 7.352 27.059 6.688C27.059 6.016 27.195 5.428 27.467 4.924C27.739 4.412 28.111 4.016 28.583 3.736C29.063 3.456 29.595 3.316 30.179 3.316ZM32.627 6.7C32.627 6.204 32.527 5.772 32.327 5.404C32.127 5.036 31.855 4.756 31.511 4.564C31.175 4.364 30.803 4.264 30.395 4.264C29.987 4.264 29.615 4.36 29.279 4.552C28.943 4.744 28.675 5.024 28.475 5.392C28.275 5.76 28.175 6.192 28.175 6.688C28.175 7.192 28.275 7.632 28.475 8.008C28.675 8.376 28.943 8.66 29.279 8.86C29.615 9.052 29.987 9.148 30.395 9.148C30.803 9.148 31.175 9.052 31.511 8.86C31.855 8.66 32.127 8.376 32.327 8.008C32.527 7.632 32.627 7.196 32.627 6.7ZM38.7803 3.304C39.5803 3.304 40.2283 3.548 40.7243 4.036C41.2203 4.516 41.4683 5.212 41.4683 6.124V10H40.3883V6.28C40.3883 5.624 40.2243 5.124 39.8963 4.78C39.5683 4.428 39.1203 4.252 38.5523 4.252C37.9763 4.252 37.5163 4.432 37.1723 4.792C36.8363 5.152 36.6683 5.676 36.6683 6.364V10H35.5763V3.424H36.6683V4.36C36.8843 4.024 37.1763 3.764 37.5443 3.58C37.9203 3.396 38.3323 3.304 38.7803 3.304ZM43.8161 2.356C43.6081 2.356 43.4321 2.284 43.2881 2.14C43.1441 1.996 43.0721 1.82 43.0721 1.612C43.0721 1.404 43.1441 1.228 43.2881 1.084C43.4321 0.94 43.6081 0.868 43.8161 0.868C44.0161 0.868 44.1841 0.94 44.3201 1.084C44.4641 1.228 44.5361 1.404 44.5361 1.612C44.5361 1.82 44.4641 1.996 44.3201 2.14C44.1841 2.284 44.0161 2.356 43.8161 2.356ZM44.3441 3.424V10H43.2521V3.424H44.3441ZM49.4093 3.304C50.2093 3.304 50.8573 3.548 51.3533 4.036C51.8493 4.516 52.0973 5.212 52.0973 6.124V10H51.0173V6.28C51.0173 5.624 50.8533 5.124 50.5253 4.78C50.1973 4.428 49.7493 4.252 49.1813 4.252C48.6053 4.252 48.1453 4.432 47.8013 4.792C47.4653 5.152 47.2973 5.676 47.2973 6.364V10H46.2053V3.424H47.2973V4.36C47.5133 4.024 47.8053 3.764 48.1733 3.58C48.5493 3.396 48.9613 3.304 49.4093 3.304ZM56.593 3.316C57.161 3.316 57.657 3.44 58.081 3.688C58.513 3.936 58.833 4.248 59.041 4.624V3.424H60.145V10.144C60.145 10.744 60.017 11.276 59.761 11.74C59.505 12.212 59.137 12.58 58.657 12.844C58.185 13.108 57.633 13.24 57.001 13.24C56.137 13.24 55.417 13.036 54.841 12.628C54.265 12.22 53.925 11.664 53.821 10.96H54.901C55.021 11.36 55.269 11.68 55.645 11.92C56.021 12.168 56.473 12.292 57.001 12.292C57.601 12.292 58.089 12.104 58.465 11.728C58.849 11.352 59.041 10.824 59.041 10.144V8.764C58.825 9.148 58.505 9.468 58.081 9.724C57.657 9.98 57.161 10.108 56.593 10.108C56.009 10.108 55.477 9.964 54.997 9.676C54.525 9.388 54.153 8.984 53.881 8.464C53.609 7.944 53.473 7.352 53.473 6.688C53.473 6.016 53.609 5.428 53.881 4.924C54.153 4.412 54.525 4.016 54.997 3.736C55.477 3.456 56.009 3.316 56.593 3.316ZM59.041 6.7C59.041 6.204 58.941 5.772 58.741 5.404C58.541 5.036 58.269 4.756 57.925 4.564C57.589 4.364 57.217 4.264 56.809 4.264C56.401 4.264 56.029 4.36 55.693 4.552C55.357 4.744 55.089 5.024 54.889 5.392C54.689 5.76 54.589 6.192 54.589 6.688C54.589 7.192 54.689 7.632 54.889 8.008C55.089 8.376 55.357 8.66 55.693 8.86C56.029 9.052 56.401 9.148 56.809 9.148C57.217 9.148 57.589 9.052 57.925 8.86C58.269 8.66 58.541 8.376 58.741 8.008C58.941 7.632 59.041 7.196 59.041 6.7ZM65.7536 2.356C65.5456 2.356 65.3696 2.284 65.2256 2.14C65.0816 1.996 65.0096 1.82 65.0096 1.612C65.0096 1.404 65.0816 1.228 65.2256 1.084C65.3696 0.94 65.5456 0.868 65.7536 0.868C65.9536 0.868 66.1216 0.94 66.2576 1.084C66.4016 1.228 66.4736 1.404 66.4736 1.612C66.4736 1.82 66.4016 1.996 66.2576 2.14C66.1216 2.284 65.9536 2.356 65.7536 2.356ZM66.2816 3.424V10H65.1896V3.424H66.2816ZM71.3468 3.304C72.1468 3.304 72.7948 3.548 73.2908 4.036C73.7868 4.516 74.0348 5.212 74.0348 6.124V10H72.9548V6.28C72.9548 5.624 72.7908 5.124 72.4628 4.78C72.1348 4.428 71.6868 4.252 71.1188 4.252C70.5428 4.252 70.0828 4.432 69.7388 4.792C69.4028 5.152 69.2348 5.676 69.2348 6.364V10H68.1428V3.424H69.2348V4.36C69.4508 4.024 69.7428 3.764 70.1108 3.58C70.4868 3.396 70.8988 3.304 71.3468 3.304ZM84.6818 3.424L80.7218 13.096H79.5938L80.8898 9.928L78.2378 3.424H79.4498L81.5138 8.752L83.5538 3.424H84.6818ZM88.6475 10.108C88.0315 10.108 87.4715 9.968 86.9675 9.688C86.4715 9.408 86.0795 9.012 85.7915 8.5C85.5115 7.98 85.3715 7.38 85.3715 6.7C85.3715 6.028 85.5155 5.436 85.8035 4.924C86.0995 4.404 86.4995 4.008 87.0035 3.736C87.5075 3.456 88.0715 3.316 88.6955 3.316C89.3195 3.316 89.8835 3.456 90.3875 3.736C90.8915 4.008 91.2875 4.4 91.5755 4.912C91.8715 5.424 92.0195 6.02 92.0195 6.7C92.0195 7.38 91.8675 7.98 91.5635 8.5C91.2675 9.012 90.8635 9.408 90.3515 9.688C89.8395 9.968 89.2715 10.108 88.6475 10.108ZM88.6475 9.148C89.0395 9.148 89.4075 9.056 89.7515 8.872C90.0955 8.688 90.3715 8.412 90.5795 8.044C90.7955 7.676 90.9035 7.228 90.9035 6.7C90.9035 6.172 90.7995 5.724 90.5915 5.356C90.3835 4.988 90.1115 4.716 89.7755 4.54C89.4395 4.356 89.0755 4.264 88.6835 4.264C88.2835 4.264 87.9155 4.356 87.5795 4.54C87.2515 4.716 86.9875 4.988 86.7875 5.356C86.5875 5.724 86.4875 6.172 86.4875 6.7C86.4875 7.236 86.5835 7.688 86.7755 8.056C86.9755 8.424 87.2395 8.7 87.5675 8.884C87.8955 9.06 88.2555 9.148 88.6475 9.148ZM99.2873 3.424V10H98.1953V9.028C97.9873 9.364 97.6953 9.628 97.3193 9.82C96.9513 10.004 96.5433 10.096 96.0953 10.096C95.5833 10.096 95.1233 9.992 94.7153 9.784C94.3073 9.568 93.9833 9.248 93.7433 8.824C93.5113 8.4 93.3953 7.884 93.3953 7.276V3.424H94.4753V7.132C94.4753 7.78 94.6393 8.28 94.9673 8.632C95.2953 8.976 95.7433 9.148 96.3113 9.148C96.8953 9.148 97.3553 8.968 97.6913 8.608C98.0273 8.248 98.1953 7.724 98.1953 7.036V3.424H99.2873ZM103.922 6.688C103.922 6.016 104.058 5.428 104.33 4.924C104.602 4.412 104.974 4.016 105.446 3.736C105.926 3.456 106.458 3.316 107.042 3.316C107.618 3.316 108.118 3.44 108.542 3.688C108.966 3.936 109.282 4.248 109.49 4.624V3.424H110.594V10H109.49V8.776C109.274 9.16 108.95 9.48 108.518 9.736C108.094 9.984 107.598 10.108 107.03 10.108C106.446 10.108 105.918 9.964 105.446 9.676C104.974 9.388 104.602 8.984 104.33 8.464C104.058 7.944 103.922 7.352 103.922 6.688ZM109.49 6.7C109.49 6.204 109.39 5.772 109.19 5.404C108.99 5.036 108.718 4.756 108.374 4.564C108.038 4.364 107.666 4.264 107.258 4.264C106.85 4.264 106.478 4.36 106.142 4.552C105.806 4.744 105.538 5.024 105.338 5.392C105.138 5.76 105.038 6.192 105.038 6.688C105.038 7.192 105.138 7.632 105.338 8.008C105.538 8.376 105.806 8.66 106.142 8.86C106.478 9.052 106.85 9.148 107.258 9.148C107.666 9.148 108.038 9.052 108.374 8.86C108.718 8.66 108.99 8.376 109.19 8.008C109.39 7.632 109.49 7.196 109.49 6.7ZM115.152 3.316C115.72 3.316 116.216 3.44 116.64 3.688C117.072 3.936 117.392 4.248 117.6 4.624V3.424H118.704V10.144C118.704 10.744 118.576 11.276 118.32 11.74C118.064 12.212 117.696 12.58 117.216 12.844C116.744 13.108 116.192 13.24 115.56 13.24C114.696 13.24 113.976 13.036 113.4 12.628C112.824 12.22 112.484 11.664 112.38 10.96H113.46C113.58 11.36 113.828 11.68 114.204 11.92C114.58 12.168 115.032 12.292 115.56 12.292C116.16 12.292 116.648 12.104 117.024 11.728C117.408 11.352 117.6 10.824 117.6 10.144V8.764C117.384 9.148 117.064 9.468 116.64 9.724C116.216 9.98 115.72 10.108 115.152 10.108C114.568 10.108 114.036 9.964 113.556 9.676C113.084 9.388 112.712 8.984 112.44 8.464C112.168 7.944 112.032 7.352 112.032 6.688C112.032 6.016 112.168 5.428 112.44 4.924C112.712 4.412 113.084 4.016 113.556 3.736C114.036 3.456 114.568 3.316 115.152 3.316ZM117.6 6.7C117.6 6.204 117.5 5.772 117.3 5.404C117.1 5.036 116.828 4.756 116.484 4.564C116.148 4.364 115.776 4.264 115.368 4.264C114.96 4.264 114.588 4.36 114.252 4.552C113.916 4.744 113.648 5.024 113.448 5.392C113.248 5.76 113.148 6.192 113.148 6.688C113.148 7.192 113.248 7.632 113.448 8.008C113.648 8.376 113.916 8.66 114.252 8.86C114.588 9.052 114.96 9.148 115.368 9.148C115.776 9.148 116.148 9.052 116.484 8.86C116.828 8.66 117.1 8.376 117.3 8.008C117.5 7.632 117.6 7.196 117.6 6.7ZM121.641 4.492C121.833 4.116 122.105 3.824 122.457 3.616C122.817 3.408 123.253 3.304 123.765 3.304V4.432H123.477C122.253 4.432 121.641 5.096 121.641 6.424V10H120.549V3.424H121.641V4.492ZM131.026 6.46C131.026 6.668 131.014 6.888 130.99 7.12H125.734C125.774 7.768 125.994 8.276 126.394 8.644C126.802 9.004 127.294 9.184 127.87 9.184C128.342 9.184 128.734 9.076 129.046 8.86C129.366 8.636 129.59 8.34 129.718 7.972H130.894C130.718 8.604 130.366 9.12 129.838 9.52C129.31 9.912 128.654 10.108 127.87 10.108C127.246 10.108 126.686 9.968 126.19 9.688C125.702 9.408 125.318 9.012 125.038 8.5C124.758 7.98 124.618 7.38 124.618 6.7C124.618 6.02 124.754 5.424 125.026 4.912C125.298 4.4 125.678 4.008 126.166 3.736C126.662 3.456 127.23 3.316 127.87 3.316C128.494 3.316 129.046 3.452 129.526 3.724C130.006 3.996 130.374 4.372 130.63 4.852C130.894 5.324 131.026 5.86 131.026 6.46ZM129.898 6.232C129.898 5.816 129.806 5.46 129.622 5.164C129.438 4.86 129.186 4.632 128.866 4.48C128.554 4.32 128.206 4.24 127.822 4.24C127.27 4.24 126.798 4.416 126.406 4.768C126.022 5.12 125.802 5.608 125.746 6.232H129.898ZM138.467 6.46C138.467 6.668 138.455 6.888 138.431 7.12H133.175C133.215 7.768 133.435 8.276 133.835 8.644C134.243 9.004 134.735 9.184 135.311 9.184C135.783 9.184 136.175 9.076 136.487 8.86C136.807 8.636 137.031 8.34 137.159 7.972H138.335C138.159 8.604 137.807 9.12 137.279 9.52C136.751 9.912 136.095 10.108 135.311 10.108C134.687 10.108 134.127 9.968 133.631 9.688C133.143 9.408 132.759 9.012 132.479 8.5C132.199 7.98 132.059 7.38 132.059 6.7C132.059 6.02 132.195 5.424 132.467 4.912C132.739 4.4 133.119 4.008 133.607 3.736C134.103 3.456 134.671 3.316 135.311 3.316C135.935 3.316 136.487 3.452 136.967 3.724C137.447 3.996 137.815 4.372 138.071 4.852C138.335 5.324 138.467 5.86 138.467 6.46ZM137.339 6.232C137.339 5.816 137.247 5.46 137.063 5.164C136.879 4.86 136.627 4.632 136.307 4.48C135.995 4.32 135.647 4.24 135.263 4.24C134.711 4.24 134.239 4.416 133.847 4.768C133.463 5.12 133.243 5.608 133.187 6.232H137.339ZM144.44 4.324V8.2C144.44 8.52 144.508 8.748 144.644 8.884C144.78 9.012 145.016 9.076 145.352 9.076H146.156V10H145.172C144.564 10 144.108 9.86 143.804 9.58C143.5 9.3 143.348 8.84 143.348 8.2V4.324H142.496V3.424H143.348V1.768H144.44V3.424H146.156V4.324H144.44ZM150.347 10.108C149.731 10.108 149.171 9.968 148.667 9.688C148.171 9.408 147.779 9.012 147.491 8.5C147.211 7.98 147.071 7.38 147.071 6.7C147.071 6.028 147.215 5.436 147.503 4.924C147.799 4.404 148.199 4.008 148.703 3.736C149.207 3.456 149.771 3.316 150.395 3.316C151.019 3.316 151.583 3.456 152.087 3.736C152.591 4.008 152.987 4.4 153.275 4.912C153.571 5.424 153.719 6.02 153.719 6.7C153.719 7.38 153.567 7.98 153.263 8.5C152.967 9.012 152.563 9.408 152.051 9.688C151.539 9.968 150.971 10.108 150.347 10.108ZM150.347 9.148C150.739 9.148 151.107 9.056 151.451 8.872C151.795 8.688 152.071 8.412 152.279 8.044C152.495 7.676 152.603 7.228 152.603 6.7C152.603 6.172 152.499 5.724 152.291 5.356C152.083 4.988 151.811 4.716 151.475 4.54C151.139 4.356 150.775 4.264 150.383 4.264C149.983 4.264 149.615 4.356 149.279 4.54C148.951 4.716 148.687 4.988 148.487 5.356C148.287 5.724 148.187 6.172 148.187 6.7C148.187 7.236 148.283 7.688 148.475 8.056C148.675 8.424 148.939 8.7 149.267 8.884C149.595 9.06 149.955 9.148 150.347 9.148ZM161.222 10.108C160.606 10.108 160.046 9.968 159.542 9.688C159.046 9.408 158.654 9.012 158.366 8.5C158.086 7.98 157.946 7.38 157.946 6.7C157.946 6.028 158.09 5.436 158.378 4.924C158.674 4.404 159.074 4.008 159.578 3.736C160.082 3.456 160.646 3.316 161.27 3.316C161.894 3.316 162.458 3.456 162.962 3.736C163.466 4.008 163.862 4.4 164.15 4.912C164.446 5.424 164.594 6.02 164.594 6.7C164.594 7.38 164.442 7.98 164.138 8.5C163.842 9.012 163.438 9.408 162.926 9.688C162.414 9.968 161.846 10.108 161.222 10.108ZM161.222 9.148C161.614 9.148 161.982 9.056 162.326 8.872C162.67 8.688 162.946 8.412 163.154 8.044C163.37 7.676 163.478 7.228 163.478 6.7C163.478 6.172 163.374 5.724 163.166 5.356C162.958 4.988 162.686 4.716 162.35 4.54C162.014 4.356 161.65 4.264 161.258 4.264C160.858 4.264 160.49 4.356 160.154 4.54C159.826 4.716 159.562 4.988 159.362 5.356C159.162 5.724 159.062 6.172 159.062 6.7C159.062 7.236 159.158 7.688 159.35 8.056C159.55 8.424 159.814 8.7 160.142 8.884C160.47 9.06 160.83 9.148 161.222 9.148ZM171.861 3.424V10H170.769V9.028C170.561 9.364 170.269 9.628 169.893 9.82C169.525 10.004 169.117 10.096 168.669 10.096C168.157 10.096 167.697 9.992 167.289 9.784C166.881 9.568 166.557 9.248 166.317 8.824C166.085 8.4 165.969 7.884 165.969 7.276V3.424H167.049V7.132C167.049 7.78 167.213 8.28 167.541 8.632C167.869 8.976 168.317 9.148 168.885 9.148C169.469 9.148 169.929 8.968 170.265 8.608C170.601 8.248 170.769 7.724 170.769 7.036V3.424H171.861ZM174.797 4.492C174.989 4.116 175.261 3.824 175.613 3.616C175.973 3.408 176.409 3.304 176.921 3.304V4.432H176.633C175.409 4.432 174.797 5.096 174.797 6.424V10H173.705V3.424H174.797V4.492ZM261.047 6.688C261.047 6.016 261.183 5.428 261.455 4.924C261.727 4.412 262.099 4.016 262.571 3.736C263.051 3.456 263.583 3.316 264.167 3.316C264.743 3.316 265.243 3.44 265.667 3.688C266.091 3.936 266.407 4.248 266.615 4.624V3.424H267.719V10H266.615V8.776C266.399 9.16 266.075 9.48 265.643 9.736C265.219 9.984 264.723 10.108 264.155 10.108C263.571 10.108 263.043 9.964 262.571 9.676C262.099 9.388 261.727 8.984 261.455 8.464C261.183 7.944 261.047 7.352 261.047 6.688ZM266.615 6.7C266.615 6.204 266.515 5.772 266.315 5.404C266.115 5.036 265.843 4.756 265.499 4.564C265.163 4.364 264.791 4.264 264.383 4.264C263.975 4.264 263.603 4.36 263.267 4.552C262.931 4.744 262.663 5.024 262.463 5.392C262.263 5.76 262.163 6.192 262.163 6.688C262.163 7.192 262.263 7.632 262.463 8.008C262.663 8.376 262.931 8.66 263.267 8.86C263.603 9.052 263.975 9.148 264.383 9.148C264.791 9.148 265.163 9.052 265.499 8.86C265.843 8.66 266.115 8.376 266.315 8.008C266.515 7.632 266.615 7.196 266.615 6.7ZM272.769 3.304C273.569 3.304 274.217 3.548 274.713 4.036C275.209 4.516 275.457 5.212 275.457 6.124V10H274.377V6.28C274.377 5.624 274.213 5.124 273.885 4.78C273.557 4.428 273.109 4.252 272.541 4.252C271.965 4.252 271.505 4.432 271.161 4.792C270.825 5.152 270.657 5.676 270.657 6.364V10H269.565V3.424H270.657V4.36C270.873 4.024 271.165 3.764 271.533 3.58C271.909 3.396 272.321 3.304 272.769 3.304ZM276.832 6.688C276.832 6.016 276.968 5.428 277.24 4.924C277.512 4.412 277.884 4.016 278.356 3.736C278.836 3.456 279.372 3.316 279.964 3.316C280.476 3.316 280.952 3.436 281.392 3.676C281.832 3.908 282.168 4.216 282.4 4.6V1.12H283.504V10H282.4V8.764C282.184 9.156 281.864 9.48 281.44 9.736C281.016 9.984 280.52 10.108 279.952 10.108C279.368 10.108 278.836 9.964 278.356 9.676C277.884 9.388 277.512 8.984 277.24 8.464C276.968 7.944 276.832 7.352 276.832 6.688ZM282.4 6.7C282.4 6.204 282.3 5.772 282.1 5.404C281.9 5.036 281.628 4.756 281.284 4.564C280.948 4.364 280.576 4.264 280.168 4.264C279.76 4.264 279.388 4.36 279.052 4.552C278.716 4.744 278.448 5.024 278.248 5.392C278.048 5.76 277.948 6.192 277.948 6.688C277.948 7.192 278.048 7.632 278.248 8.008C278.448 8.376 278.716 8.66 279.052 8.86C279.388 9.052 279.76 9.148 280.168 9.148C280.576 9.148 280.948 9.052 281.284 8.86C281.628 8.66 281.9 8.376 282.1 8.008C282.3 7.632 282.4 7.196 282.4 6.7Z" fill="black"/>
<path d="M186.529 1.636V2.524H184.249V10H183.157V2.524H180.865V1.636H186.529ZM193.873 6.46C193.873 6.668 193.861 6.888 193.837 7.12H188.581C188.621 7.768 188.841 8.276 189.241 8.644C189.649 9.004 190.141 9.184 190.717 9.184C191.189 9.184 191.581 9.076 191.893 8.86C192.213 8.636 192.437 8.34 192.565 7.972H193.741C193.565 8.604 193.213 9.12 192.685 9.52C192.157 9.912 191.501 10.108 190.717 10.108C190.093 10.108 189.533 9.968 189.037 9.688C188.549 9.408 188.165 9.012 187.885 8.5C187.605 7.98 187.465 7.38 187.465 6.7C187.465 6.02 187.601 5.424 187.873 4.912C188.145 4.4 188.525 4.008 189.013 3.736C189.509 3.456 190.077 3.316 190.717 3.316C191.341 3.316 191.893 3.452 192.373 3.724C192.853 3.996 193.221 4.372 193.477 4.852C193.741 5.324 193.873 5.86 193.873 6.46ZM192.745 6.232C192.745 5.816 192.653 5.46 192.469 5.164C192.285 4.86 192.033 4.632 191.713 4.48C191.401 4.32 191.053 4.24 190.669 4.24C190.117 4.24 189.645 4.416 189.253 4.768C188.869 5.12 188.649 5.608 188.593 6.232H192.745ZM196.407 4.492C196.599 4.116 196.871 3.824 197.223 3.616C197.583 3.408 198.019 3.304 198.531 3.304V4.432H198.243C197.019 4.432 196.407 5.096 196.407 6.424V10H195.315V3.424H196.407V4.492ZM207.699 3.304C208.211 3.304 208.667 3.412 209.067 3.628C209.467 3.836 209.783 4.152 210.015 4.576C210.247 5 210.363 5.516 210.363 6.124V10H209.283V6.28C209.283 5.624 209.119 5.124 208.791 4.78C208.471 4.428 208.035 4.252 207.483 4.252C206.915 4.252 206.463 4.436 206.127 4.804C205.791 5.164 205.623 5.688 205.623 6.376V10H204.543V6.28C204.543 5.624 204.379 5.124 204.051 4.78C203.731 4.428 203.295 4.252 202.743 4.252C202.175 4.252 201.723 4.436 201.387 4.804C201.051 5.164 200.883 5.688 200.883 6.376V10H199.791V3.424H200.883V4.372C201.099 4.028 201.387 3.764 201.747 3.58C202.115 3.396 202.519 3.304 202.959 3.304C203.511 3.304 203.999 3.428 204.423 3.676C204.847 3.924 205.163 4.288 205.371 4.768C205.555 4.304 205.859 3.944 206.283 3.688C206.707 3.432 207.179 3.304 207.699 3.304ZM214.482 10.108C213.978 10.108 213.526 10.024 213.126 9.856C212.726 9.68 212.41 9.44 212.178 9.136C211.946 8.824 211.818 8.468 211.794 8.068H212.922C212.954 8.396 213.106 8.664 213.378 8.872C213.658 9.08 214.022 9.184 214.47 9.184C214.886 9.184 215.214 9.092 215.454 8.908C215.694 8.724 215.814 8.492 215.814 8.212C215.814 7.924 215.686 7.712 215.43 7.576C215.174 7.432 214.778 7.292 214.242 7.156C213.754 7.028 213.354 6.9 213.042 6.772C212.738 6.636 212.474 6.44 212.25 6.184C212.034 5.92 211.926 5.576 211.926 5.152C211.926 4.816 212.026 4.508 212.226 4.228C212.426 3.948 212.71 3.728 213.078 3.568C213.446 3.4 213.866 3.316 214.338 3.316C215.066 3.316 215.654 3.5 216.102 3.868C216.55 4.236 216.79 4.74 216.822 5.38H215.73C215.706 5.036 215.566 4.76 215.31 4.552C215.062 4.344 214.726 4.24 214.302 4.24C213.91 4.24 213.598 4.324 213.366 4.492C213.134 4.66 213.018 4.88 213.018 5.152C213.018 5.368 213.086 5.548 213.222 5.692C213.366 5.828 213.542 5.94 213.75 6.028C213.966 6.108 214.262 6.2 214.638 6.304C215.11 6.432 215.494 6.56 215.79 6.688C216.086 6.808 216.338 6.992 216.546 7.24C216.762 7.488 216.874 7.812 216.882 8.212C216.882 8.572 216.782 8.896 216.582 9.184C216.382 9.472 216.098 9.7 215.73 9.868C215.37 10.028 214.954 10.108 214.482 10.108ZM224.491 10.108C223.875 10.108 223.315 9.968 222.811 9.688C222.315 9.408 221.923 9.012 221.635 8.5C221.355 7.98 221.215 7.38 221.215 6.7C221.215 6.028 221.359 5.436 221.647 4.924C221.943 4.404 222.343 4.008 222.847 3.736C223.351 3.456 223.915 3.316 224.539 3.316C225.163 3.316 225.727 3.456 226.231 3.736C226.735 4.008 227.131 4.4 227.419 4.912C227.715 5.424 227.863 6.02 227.863 6.7C227.863 7.38 227.711 7.98 227.407 8.5C227.111 9.012 226.707 9.408 226.195 9.688C225.683 9.968 225.115 10.108 224.491 10.108ZM224.491 9.148C224.883 9.148 225.251 9.056 225.595 8.872C225.939 8.688 226.215 8.412 226.423 8.044C226.639 7.676 226.747 7.228 226.747 6.7C226.747 6.172 226.643 5.724 226.435 5.356C226.227 4.988 225.955 4.716 225.619 4.54C225.283 4.356 224.919 4.264 224.527 4.264C224.127 4.264 223.759 4.356 223.423 4.54C223.095 4.716 222.831 4.988 222.631 5.356C222.431 5.724 222.331 6.172 222.331 6.7C222.331 7.236 222.427 7.688 222.619 8.056C222.819 8.424 223.083 8.7 223.411 8.884C223.739 9.06 224.099 9.148 224.491 9.148ZM231.975 4.324H230.595V10H229.503V4.324H228.651V3.424H229.503V2.956C229.503 2.22 229.691 1.684 230.067 1.348C230.451 1.004 231.063 0.831999 231.903 0.831999V1.744C231.423 1.744 231.083 1.84 230.883 2.032C230.691 2.216 230.595 2.524 230.595 2.956V3.424H231.975V4.324ZM237.515 1.636V6.928C237.515 7.672 237.695 8.224 238.055 8.584C238.423 8.944 238.931 9.124 239.579 9.124C240.219 9.124 240.719 8.944 241.079 8.584C241.447 8.224 241.631 7.672 241.631 6.928V1.636H242.723V6.916C242.723 7.612 242.583 8.2 242.303 8.68C242.023 9.152 241.643 9.504 241.163 9.736C240.691 9.968 240.159 10.084 239.567 10.084C238.975 10.084 238.439 9.968 237.959 9.736C237.487 9.504 237.111 9.152 236.831 8.68C236.559 8.2 236.423 7.612 236.423 6.916V1.636H237.515ZM246.873 10.108C246.369 10.108 245.917 10.024 245.517 9.856C245.117 9.68 244.801 9.44 244.569 9.136C244.337 8.824 244.209 8.468 244.185 8.068H245.313C245.345 8.396 245.497 8.664 245.769 8.872C246.049 9.08 246.413 9.184 246.861 9.184C247.277 9.184 247.605 9.092 247.845 8.908C248.085 8.724 248.205 8.492 248.205 8.212C248.205 7.924 248.077 7.712 247.821 7.576C247.565 7.432 247.169 7.292 246.633 7.156C246.145 7.028 245.745 6.9 245.433 6.772C245.129 6.636 244.865 6.44 244.641 6.184C244.425 5.92 244.317 5.576 244.317 5.152C244.317 4.816 244.417 4.508 244.617 4.228C244.817 3.948 245.101 3.728 245.469 3.568C245.837 3.4 246.257 3.316 246.729 3.316C247.457 3.316 248.045 3.5 248.493 3.868C248.941 4.236 249.181 4.74 249.213 5.38H248.121C248.097 5.036 247.957 4.76 247.701 4.552C247.453 4.344 247.117 4.24 246.693 4.24C246.301 4.24 245.989 4.324 245.757 4.492C245.525 4.66 245.409 4.88 245.409 5.152C245.409 5.368 245.477 5.548 245.613 5.692C245.757 5.828 245.933 5.94 246.141 6.028C246.357 6.108 246.653 6.2 247.029 6.304C247.501 6.432 247.885 6.56 248.181 6.688C248.477 6.808 248.729 6.992 248.937 7.24C249.153 7.488 249.265 7.812 249.273 8.212C249.273 8.572 249.173 8.896 248.973 9.184C248.773 9.472 248.489 9.7 248.121 9.868C247.761 10.028 247.345 10.108 246.873 10.108ZM256.815 6.46C256.815 6.668 256.803 6.888 256.779 7.12H251.523C251.563 7.768 251.783 8.276 252.183 8.644C252.591 9.004 253.083 9.184 253.659 9.184C254.131 9.184 254.523 9.076 254.835 8.86C255.155 8.636 255.379 8.34 255.507 7.972H256.683C256.507 8.604 256.155 9.12 255.627 9.52C255.099 9.912 254.443 10.108 253.659 10.108C253.035 10.108 252.475 9.968 251.979 9.688C251.491 9.408 251.107 9.012 250.827 8.5C250.547 7.98 250.407 7.38 250.407 6.7C250.407 6.02 250.543 5.424 250.815 4.912C251.087 4.4 251.467 4.008 251.955 3.736C252.451 3.456 253.019 3.316 253.659 3.316C254.283 3.316 254.835 3.452 255.315 3.724C255.795 3.996 256.163 4.372 256.419 4.852C256.683 5.324 256.815 5.86 256.815 6.46ZM255.687 6.232C255.687 5.816 255.595 5.46 255.411 5.164C255.227 4.86 254.975 4.632 254.655 4.48C254.343 4.32 253.995 4.24 253.611 4.24C253.059 4.24 252.587 4.416 252.195 4.768C251.811 5.12 251.591 5.608 251.535 6.232H255.687ZM6.516 20.084C6.516 20.78 6.276 21.36 5.796 21.824C5.324 22.28 4.6 22.508 3.624 22.508H2.016V26H0.924V17.636H3.624C4.568 17.636 5.284 17.864 5.772 18.32C6.268 18.776 6.516 19.364 6.516 20.084ZM3.624 21.608C4.232 21.608 4.68 21.476 4.968 21.212C5.256 20.948 5.4 20.572 5.4 20.084C5.4 19.052 4.808 18.536 3.624 18.536H2.016V21.608H3.624ZM8.96522 20.492C9.15722 20.116 9.42922 19.824 9.78122 19.616C10.1412 19.408 10.5772 19.304 11.0892 19.304V20.432H10.8012C9.57722 20.432 8.96522 21.096 8.96522 22.424V26H7.87322V19.424H8.96522V20.492ZM12.9138 18.356C12.7058 18.356 12.5298 18.284 12.3858 18.14C12.2418 17.996 12.1698 17.82 12.1698 17.612C12.1698 17.404 12.2418 17.228 12.3858 17.084C12.5298 16.94 12.7058 16.868 12.9138 16.868C13.1138 16.868 13.2818 16.94 13.4178 17.084C13.5618 17.228 13.6338 17.404 13.6338 17.612C13.6338 17.82 13.5618 17.996 13.4178 18.14C13.2818 18.284 13.1138 18.356 12.9138 18.356ZM13.4418 19.424V26H12.3498V19.424H13.4418ZM17.7509 24.992L19.7909 19.424H20.9549L18.3749 26H17.1029L14.5229 19.424H15.6989L17.7509 24.992ZM21.6215 22.688C21.6215 22.016 21.7575 21.428 22.0295 20.924C22.3015 20.412 22.6735 20.016 23.1455 19.736C23.6255 19.456 24.1575 19.316 24.7415 19.316C25.3175 19.316 25.8175 19.44 26.2415 19.688C26.6655 19.936 26.9815 20.248 27.1895 20.624V19.424H28.2935V26H27.1895V24.776C26.9735 25.16 26.6495 25.48 26.2175 25.736C25.7935 25.984 25.2975 26.108 24.7295 26.108C24.1455 26.108 23.6175 25.964 23.1455 25.676C22.6735 25.388 22.3015 24.984 22.0295 24.464C21.7575 23.944 21.6215 23.352 21.6215 22.688ZM27.1895 22.7C27.1895 22.204 27.0895 21.772 26.8895 21.404C26.6895 21.036 26.4175 20.756 26.0735 20.564C25.7375 20.364 25.3655 20.264 24.9575 20.264C24.5495 20.264 24.1775 20.36 23.8415 20.552C23.5055 20.744 23.2375 21.024 23.0375 21.392C22.8375 21.76 22.7375 22.192 22.7375 22.688C22.7375 23.192 22.8375 23.632 23.0375 24.008C23.2375 24.376 23.5055 24.66 23.8415 24.86C24.1775 25.052 24.5495 25.148 24.9575 25.148C25.3655 25.148 25.7375 25.052 26.0735 24.86C26.4175 24.66 26.6895 24.376 26.8895 24.008C27.0895 23.632 27.1895 23.196 27.1895 22.7ZM29.7308 22.7C29.7308 22.02 29.8668 21.428 30.1388 20.924C30.4108 20.412 30.7868 20.016 31.2668 19.736C31.7548 19.456 32.3108 19.316 32.9348 19.316C33.7428 19.316 34.4068 19.512 34.9268 19.904C35.4548 20.296 35.8028 20.84 35.9708 21.536H34.7948C34.6828 21.136 34.4628 20.82 34.1348 20.588C33.8148 20.356 33.4148 20.24 32.9348 20.24C32.3108 20.24 31.8068 20.456 31.4228 20.888C31.0388 21.312 30.8468 21.916 30.8468 22.7C30.8468 23.492 31.0388 24.104 31.4228 24.536C31.8068 24.968 32.3108 25.184 32.9348 25.184C33.4148 25.184 33.8148 25.072 34.1348 24.848C34.4548 24.624 34.6748 24.304 34.7948 23.888H35.9708C35.7948 24.56 35.4428 25.1 34.9148 25.508C34.3868 25.908 33.7268 26.108 32.9348 26.108C32.3108 26.108 31.7548 25.968 31.2668 25.688C30.7868 25.408 30.4108 25.012 30.1388 24.5C29.8668 23.988 29.7308 23.388 29.7308 22.7ZM43.0919 19.424L39.1319 29.096H38.0039L39.2999 25.928L36.6479 19.424H37.8599L39.9239 24.752L41.9639 19.424H43.0919ZM52.9808 20.084C52.9808 20.78 52.7408 21.36 52.2608 21.824C51.7888 22.28 51.0648 22.508 50.0888 22.508H48.4808V26H47.3888V17.636H50.0888C51.0328 17.636 51.7488 17.864 52.2368 18.32C52.7328 18.776 52.9808 19.364 52.9808 20.084ZM50.0888 21.608C50.6968 21.608 51.1448 21.476 51.4328 21.212C51.7208 20.948 51.8648 20.572 51.8648 20.084C51.8648 19.052 51.2728 18.536 50.0888 18.536H48.4808V21.608H50.0888ZM57.2061 26.108C56.5901 26.108 56.0301 25.968 55.5261 25.688C55.0301 25.408 54.6381 25.012 54.3501 24.5C54.0701 23.98 53.9301 23.38 53.9301 22.7C53.9301 22.028 54.0741 21.436 54.3621 20.924C54.6581 20.404 55.0581 20.008 55.5621 19.736C56.0661 19.456 56.6301 19.316 57.2541 19.316C57.8781 19.316 58.4421 19.456 58.9461 19.736C59.4501 20.008 59.8461 20.4 60.1341 20.912C60.4301 21.424 60.5781 22.02 60.5781 22.7C60.5781 23.38 60.4261 23.98 60.1221 24.5C59.8261 25.012 59.4221 25.408 58.9101 25.688C58.3981 25.968 57.8301 26.108 57.2061 26.108ZM57.2061 25.148C57.5981 25.148 57.9661 25.056 58.3101 24.872C58.6541 24.688 58.9301 24.412 59.1381 24.044C59.3541 23.676 59.4621 23.228 59.4621 22.7C59.4621 22.172 59.3581 21.724 59.1501 21.356C58.9421 20.988 58.6701 20.716 58.3341 20.54C57.9981 20.356 57.6341 20.264 57.2421 20.264C56.8421 20.264 56.4741 20.356 56.1381 20.54C55.8101 20.716 55.5461 20.988 55.3461 21.356C55.1461 21.724 55.0461 22.172 55.0461 22.7C55.0461 23.236 55.1421 23.688 55.3341 24.056C55.5341 24.424 55.7981 24.7 56.1261 24.884C56.4541 25.06 56.8141 25.148 57.2061 25.148ZM63.1058 17.12V26H62.0138V17.12H63.1058ZM65.531 18.356C65.323 18.356 65.147 18.284 65.003 18.14C64.859 17.996 64.787 17.82 64.787 17.612C64.787 17.404 64.859 17.228 65.003 17.084C65.147 16.94 65.323 16.868 65.531 16.868C65.731 16.868 65.899 16.94 66.035 17.084C66.179 17.228 66.251 17.404 66.251 17.612C66.251 17.82 66.179 17.996 66.035 18.14C65.899 18.284 65.731 18.356 65.531 18.356ZM66.059 19.424V26H64.967V19.424H66.059ZM67.5121 22.7C67.5121 22.02 67.6481 21.428 67.9201 20.924C68.1921 20.412 68.5681 20.016 69.0481 19.736C69.5361 19.456 70.0921 19.316 70.7161 19.316C71.5241 19.316 72.1881 19.512 72.7081 19.904C73.2361 20.296 73.5841 20.84 73.7521 21.536H72.5761C72.4641 21.136 72.2441 20.82 71.9161 20.588C71.5961 20.356 71.1961 20.24 70.7161 20.24C70.0921 20.24 69.5881 20.456 69.2041 20.888C68.8201 21.312 68.6281 21.916 68.6281 22.7C68.6281 23.492 68.8201 24.104 69.2041 24.536C69.5881 24.968 70.0921 25.184 70.7161 25.184C71.1961 25.184 71.5961 25.072 71.9161 24.848C72.2361 24.624 72.4561 24.304 72.5761 23.888H73.7521C73.5761 24.56 73.2241 25.1 72.6961 25.508C72.1681 25.908 71.5081 26.108 70.7161 26.108C70.0921 26.108 69.5361 25.968 69.0481 25.688C68.5681 25.408 68.1921 25.012 67.9201 24.5C67.6481 23.988 67.5121 23.388 67.5121 22.7ZM80.8732 19.424L76.9132 29.096H75.7852L77.0812 25.928L74.4292 19.424H75.6412L77.7052 24.752L79.7452 19.424H80.8732Z" fill="#9E1A7E"/>
<path d="M180.457 11.2H257.332V11.8H180.457V11.2ZM0 27.2H81.0412V27.8H0V27.2Z" fill="#9E1A7E"/>
</svg>
