<svg width="250" height="45" viewBox="0 0 250 45" fill="none" xmlns="http://www.w3.org/2000/svg">
<g clip-path="url(#clip0_559_2735)">
<path d="M232.484 39.9959C229.839 41.5951 227.536 42.2927 224.402 42.2927C211.797 42.2927 207.965 23.0702 197.935 20.7036C203.645 20.5641 209.57 16.9418 209.57 10.4645C209.57 3.08032 202.813 0.155626 196.196 0.155626H187.116C186.274 0.118061 185.533 0.0590306 184.6 0V0.482978C186.07 0.525909 186.8 1.21818 186.918 2.49002V32.118C186.778 33.3362 186.049 34.0016 184.61 34.0446V34.5275C186.156 34.4309 187.17 34.3343 189.005 34.3343C190.841 34.3343 191.903 34.4309 193.69 34.5275V34.0446C192.096 33.9963 191.249 33.202 191.249 31.7048V20.9129H195.15C207.895 20.9129 206.436 44.1066 221.478 44.1066C225.867 44.1066 229.141 42.9904 232.833 40.4843L232.484 39.9959ZM191.249 20.2851V0.708367H195.848C201.906 0.708367 205.25 4.40046 205.25 10.4592C205.25 16.5178 201.627 20.2797 195.848 20.2797H191.249V20.2851Z" fill="#1D1D1B"/>
<path d="M15.949 30.6477H17.033L29.4294 2.3076V31.6834C29.4294 33.2074 28.5923 33.948 26.9716 33.9963V34.49C28.7908 34.3934 29.9232 34.2915 31.7424 34.2915C33.5616 34.2915 34.6456 34.3881 36.218 34.49V33.9963C34.5919 33.948 33.7601 33.2074 33.7601 31.6834V2.80131C33.7601 1.27725 34.549 0.536684 36.1214 0.536684H36.218V0.0483398C35.0857 0.144935 34.3505 0.246897 33.0196 0.246897C31.6887 0.246897 30.9535 0.150302 29.5743 0.0483398L18.3585 25.732L7.1427 0.0483398C6.01039 0.144935 5.17323 0.246897 3.94432 0.246897C2.56515 0.241531 1.72799 0.144935 0.397115 0.0483398V0.54205H0.493711C2.06607 0.54205 2.85494 1.28262 2.85494 2.80668V31.6887C2.85494 32.8211 1.92118 33.6099 0 34.0017V34.4954C1.22891 34.3988 1.92118 34.2968 3.24668 34.2968C4.47559 34.2968 5.21616 34.3934 6.39677 34.4954V34.0017C4.52926 33.6099 3.59013 32.8211 3.59013 31.6887V2.50616L15.9383 30.6477H15.949Z" fill="#9E1A7E"/>
<path d="M62.6369 25.7803C62.6369 31.0931 59.637 33.7495 53.5837 33.7495H48.3676C46.8435 33.7495 46.0546 33.2074 46.0546 32.1234V16.9204H51.3191C52.8432 16.9204 53.7769 18.101 54.0721 20.5105H54.7107C54.6141 18.9381 54.5121 18.101 54.5121 16.5232C54.5121 14.9455 54.6087 14.1137 54.7107 12.5897H54.0721C53.7769 14.9992 52.8432 16.1798 51.3191 16.1798H46.0546V3.14476C46.0546 1.5724 46.8435 0.783539 48.3676 0.783539H52.65C58.7033 0.783539 61.7031 3.09647 61.7031 7.77062H62.39C62.2934 6.29485 62.1915 5.40939 62.1915 3.88533C62.1915 2.36127 62.2881 1.5724 62.39 0.0483398C57.469 0.0483398 54.7643 0.144935 50.1385 0.144935C45.5126 0.144935 42.8079 0.0483398 39.2661 0.0483398V0.54205H39.3627C40.9351 0.54205 41.7239 1.28262 41.7239 2.80668V31.6887C41.7239 33.2128 40.8868 33.9534 39.2661 34.0017V34.4954C43.0065 34.4954 45.8078 34.3988 50.7288 34.3988H54.1257L59.9805 34.4954H63.3774C63.2808 32.7728 63.1789 31.839 63.1789 30.1647C63.1789 28.4904 63.2755 27.46 63.3774 25.7857H62.6369V25.7803Z" fill="#9E1A7E"/>
<path d="M89.2331 21.8789H74.9101L82.0743 5.04984L89.2384 21.8789H89.2331ZM101.549 34.49V34.0017C99.7834 34.0017 98.5062 33.0679 97.771 31.2541L84.575 0.0483398H83.3998L70.1554 31.2541C69.5651 32.7245 68.3416 33.6582 66.4258 34.0017V34.49C67.703 34.3934 68.2879 34.2915 69.5168 34.2915C70.7457 34.2915 71.4809 34.3881 72.6562 34.49V34.0017C71.3307 33.7548 70.6921 33.1699 70.6921 32.2844C70.6921 31.941 70.7887 31.5975 70.9389 31.2541L74.6203 22.6195H89.5336L93.2149 31.2541C93.4135 31.7424 93.5101 32.1878 93.5101 32.5313C93.5101 33.5133 92.7266 34.0017 91.1059 34.0017V34.49C93.0218 34.3934 94.3956 34.2915 96.4026 34.2915C98.5116 34.2915 99.5903 34.3881 101.554 34.49" fill="#1D1D1B"/>
<path d="M120.546 30.6477H121.63L134.026 2.3076V31.6834C134.026 33.2074 133.189 33.948 131.568 33.9963V34.49C133.388 34.3934 134.52 34.2915 136.339 34.2915C138.158 34.2915 139.242 34.3881 140.815 34.49V33.9963C139.189 33.948 138.351 33.2074 138.351 31.6834V2.80131C138.351 1.27725 139.14 0.536684 140.713 0.536684H140.809V0.0483398C139.677 0.144935 138.942 0.246897 137.611 0.246897C136.28 0.246897 135.545 0.150302 134.166 0.0483398L122.95 25.732L111.739 0.0483398C110.607 0.144935 109.77 0.246897 108.541 0.246897C107.162 0.246897 106.325 0.150302 104.999 0.0483398V0.54205H105.096C106.668 0.54205 107.457 1.28262 107.457 2.80668V31.6887C107.457 32.8211 106.523 33.6099 104.602 34.0017V34.4954C105.831 34.3988 106.523 34.2968 107.849 34.2968C109.078 34.2968 109.818 34.3934 110.999 34.4954V34.0017C109.131 33.6099 108.192 32.8211 108.192 31.6887V2.50616L120.54 30.6477H120.546Z" fill="#1D1D1B"/>
<path d="M237.684 21.8789H223.361L230.525 5.04984L237.69 21.8789H237.684ZM250 34.49V34.0017C248.235 34.0017 246.957 33.0679 246.222 31.2541L233.021 0.0483398H231.846L218.601 31.2541C218.011 32.7245 216.787 33.6582 214.872 34.0017V34.49C216.149 34.3934 216.734 34.2915 217.963 34.2915C219.192 34.2915 219.927 34.3881 221.102 34.49V34.0017C219.776 33.7548 219.138 33.1699 219.138 32.2844C219.138 31.941 219.234 31.5975 219.385 31.2541L223.066 22.6195H237.979L241.661 31.2541C241.859 31.7424 241.956 32.1878 241.956 32.5313C241.956 33.5133 241.172 34.0017 239.552 34.0017V34.49C241.468 34.3934 242.841 34.2915 244.848 34.2915C246.957 34.2915 248.036 34.3881 250 34.49Z" fill="#1D1D1B"/>
<path d="M181.401 8.055C181.036 5.95673 180.108 4.14825 178.557 2.68322C176.888 1.11086 174.891 0.279062 172.616 0.101971C170.759 -0.0429227 168.999 0.300528 167.341 1.15379C165.447 2.13048 163.987 3.57941 162.855 5.36643C162.812 5.43082 162.769 5.50059 162.715 5.58645C162.667 5.51669 162.635 5.47376 162.602 5.42546C162.093 4.59903 161.508 3.82627 160.81 3.15546C157.644 0.128803 153.984 -0.75129 149.862 0.794239C146.294 2.13584 144.04 5.50059 143.89 9.33221C143.836 10.6524 143.922 11.9671 144.126 13.2765C144.399 15.0367 144.963 16.6949 145.875 18.2297C146.75 19.7055 147.855 20.9881 149.063 22.1955C150.866 24.004 152.814 25.6515 154.746 27.3204C157.22 29.467 159.678 31.6243 162.06 33.8675C162.275 34.0714 162.495 34.2753 162.715 34.4792C162.769 34.431 162.812 34.388 162.855 34.3505C164.341 32.9874 165.817 31.6082 167.325 30.2666C169.541 28.3025 171.79 26.3706 174.006 24.4118C175.482 23.1078 176.915 21.7447 178.16 20.2153C179.367 18.7288 180.306 17.0921 180.854 15.2406C181.202 14.06 181.401 12.8526 181.481 11.629C181.562 10.4323 181.61 9.24098 181.401 8.04964V8.055ZM178.594 14.1137C178.525 15.1494 178.358 16.169 178.063 17.1672C177.601 18.7288 176.807 20.1133 175.782 21.3745C174.725 22.6731 173.518 23.8215 172.267 24.927C170.389 26.5852 168.484 28.2166 166.611 29.8802C165.334 31.0125 164.089 32.1824 162.833 33.3362C162.796 33.3684 162.758 33.4006 162.715 33.4435C162.527 33.2664 162.339 33.0947 162.162 32.923C160.15 31.0233 158.062 29.1987 155.975 27.3795C154.343 25.9627 152.696 24.5728 151.167 23.0434C150.147 22.0238 149.208 20.9344 148.467 19.684C147.7 18.3854 147.222 16.9847 146.986 15.4929C146.814 14.3874 146.739 13.2712 146.788 12.1549C146.916 8.90826 148.821 6.06406 151.843 4.92638C155.326 3.61698 158.427 4.36827 161.105 6.92806C161.701 7.4969 162.195 8.1516 162.629 8.84923C162.651 8.89217 162.683 8.92973 162.72 8.98339C162.769 8.91363 162.806 8.8546 162.838 8.79557C163.799 7.28224 165.028 6.0587 166.633 5.23227C168.033 4.51317 169.525 4.21801 171.092 4.34144C173.019 4.4917 174.709 5.20007 176.12 6.52557C177.435 7.76522 178.219 9.29465 178.53 11.0709C178.702 12.0745 178.664 13.0887 178.6 14.0976V14.1137H178.594Z" fill="#9E1A7E"/>
</g>
<defs>
<clipPath id="clip0_559_2735">
<rect width="250" height="44.1066" fill="white"/>
</clipPath>
</defs>
</svg>
