<svg width="101" height="194" viewBox="0 0 101 194" fill="none" xmlns="http://www.w3.org/2000/svg">
<path d="M0.579666 190.538C-0.0142899 188.941 0.261772 186.671 0.278503 185.008C0.320328 181.79 0.445824 177.916 0.579674 174.698C0.889198 167.189 1.29076 157.552 1.71741 150.043C2.14405 142.535 2.29462 134.752 2.75473 127.102C3.03916 122.396 3.34869 117.69 3.67495 112.983C4.0765 107.188 4.09323 101.426 4.11832 95.6218C4.16852 84.3883 5.41499 73.1631 7.17175 62.071C8.34293 54.6956 9.77345 47.3451 11.5135 40.0779C12.852 34.4653 15.0605 29.1271 17.9299 24.0965C24.3379 12.8463 34.5941 3.24256 47.728 0.764703C55.7172 -0.740306 64.225 -0.0667944 71.7121 3.16773C77.9612 5.87009 83.014 10.5597 86.9375 16.031C90.8609 21.5022 93.722 28.2207 95.7213 34.8228C97.8629 41.9072 99.1177 49.2326 99.9376 56.5664C100.682 63.2434 101 69.9619 101 76.6804C101 83.3988 100.54 89.818 100.122 96.3951C98.7999 117.166 98.0721 137.987 98.0971 158.807C98.1055 168.702 98.2394 178.614 98.758 188.492C98.7831 188.916 98.7999 189.34 98.825 189.756C98.9504 191.71 97.0096 193.58 95.0604 193.497C92.9189 193.406 91.4298 191.851 91.2959 189.756C90.8777 183.137 90.7522 176.502 90.6518 169.874C90.3757 151.889 90.7271 133.887 91.5302 115.919C92.2412 100.037 93.9729 84.1638 93.2953 68.249C93.1447 64.7983 92.9021 61.3476 92.5508 57.9135C92.4671 57.0903 92.3751 56.2588 92.2747 55.4356C92.2329 55.0614 92.1827 54.6789 92.1325 54.3048C92.1074 54.0803 92.0739 53.8558 92.0405 53.6229C91.9485 52.9411 92.1743 54.5625 92.0237 53.4899C91.7811 51.7521 91.5051 50.0226 91.1872 48.2931C90.5598 44.859 89.7901 41.4498 88.8281 38.0906C88.3596 36.4442 87.841 34.8145 87.2637 33.1931C86.996 32.4281 86.7116 31.6714 86.4188 30.9231C86.2599 30.5157 86.0926 30.1082 85.9336 29.7091C85.8416 29.4763 85.4819 28.7861 85.9754 29.8006C85.8834 29.6093 85.7998 29.4014 85.7161 29.2019C84.386 26.1836 82.8216 23.265 80.9561 20.5377C80.5796 19.9806 80.1614 19.1408 79.6427 18.725C80.1781 19.1574 80.0777 19.2655 79.8602 18.9994C79.7347 18.8414 79.6092 18.6835 79.4838 18.5255C79.191 18.1596 78.8814 17.8021 78.5719 17.4528C77.568 16.3054 76.4889 15.2244 75.3428 14.2183C75.0918 14.0021 74.8409 13.7859 74.5899 13.5781C74.4393 13.4533 74.2804 13.3286 74.1298 13.2039C73.6279 12.7965 74.0963 12.9046 74.2636 13.3037C74.18 13.0958 73.6613 12.8547 73.4689 12.7216C73.0925 12.4555 72.7076 12.1978 72.3228 11.9483C71.0262 11.1168 69.6793 10.4101 68.2823 9.76981C67.8389 9.56194 67.8807 9.33743 68.4328 9.82802C68.3157 9.71992 68.0146 9.66172 67.864 9.60351C67.5461 9.47879 67.2198 9.36238 66.9019 9.24597C66.1156 8.97157 65.3125 8.73044 64.501 8.51425C63.7397 8.31469 62.9701 8.14839 62.1921 8.00704C61.7404 7.92389 61.2886 7.85737 60.8285 7.78253C59.8749 7.63286 61.6818 7.874 60.7281 7.77422C60.4521 7.74928 60.1844 7.7077 59.9083 7.68275C57.9257 7.4832 55.9347 7.40836 53.9437 7.49983C53.0067 7.5414 52.0865 7.62455 51.1579 7.72433C50.8317 7.75759 50.4301 7.96546 51.3336 7.69939C51.1161 7.7659 50.8568 7.7659 50.6393 7.80748C50.1457 7.89063 49.6521 7.98209 49.1586 8.08187C47.452 8.4311 45.7705 8.91337 44.1308 9.51205C43.7962 9.63677 43.4616 9.76981 43.127 9.90285C42.3908 10.1939 43.9552 9.53699 43.2357 9.85296C43.0433 9.93611 42.8509 10.0276 42.6501 10.1107C41.8889 10.46 41.136 10.8341 40.3998 11.2332C39.0279 11.9816 37.7061 12.8214 36.4345 13.7444C36.2756 13.8608 36.1166 13.9855 35.9493 14.1019C35.4558 14.4511 36.2087 13.894 36.2338 13.8774C35.9075 14.0271 35.5812 14.3929 35.3052 14.6174C34.6945 15.1163 34.1089 15.6319 33.5317 16.164C32.4525 17.1618 31.4236 18.2095 30.4448 19.3071C29.993 19.8143 29.5413 20.3381 29.1147 20.8703C28.8888 21.1447 28.688 21.4939 28.4287 21.7351C29.123 21.1031 28.8386 21.2029 28.6294 21.4856C28.504 21.6519 28.3701 21.8182 28.2446 21.9928C26.6719 24.1048 25.2581 26.3249 23.9949 28.6282C23.4344 29.6509 22.899 30.6903 22.3887 31.738C22.1712 32.187 21.9621 32.636 21.7529 33.0933C21.5605 33.509 20.8746 35.1804 21.4769 33.692C20.7407 35.5213 19.9794 37.3589 19.4524 39.263C18.2896 43.4787 17.4279 47.8025 16.5663 52.093C15.7046 56.3835 14.9015 60.8985 14.2156 65.3304C14.0315 66.5278 13.8559 67.7251 13.6885 68.9225C13.6383 69.2551 13.5965 69.5877 13.5463 69.9203C13.6634 69.0472 13.5129 70.1697 13.4961 70.2778C13.4041 70.9596 13.3204 71.6415 13.2368 72.3233C12.9022 75.0174 12.6177 77.7114 12.3751 80.4055C11.8816 85.9432 11.5971 91.4976 11.6306 97.0603C11.6641 102.623 11.48 108.585 11.0868 114.355C10.5096 122.803 9.83202 131.268 9.64797 139.733C9.34681 153.901 7.97484 170.823 7.79079 185C7.77406 185.981 7.76569 186.971 7.79916 187.952C7.80752 188.276 7.841 188.592 7.84936 188.916C7.87445 189.598 7.48127 187.993 7.7657 188.326C7.79916 188.368 7.79916 188.484 7.82426 188.542C8.50187 190.38 7.063 192.725 5.19747 193.149C3.07262 193.631 1.29074 192.508 0.562935 190.538H0.579666Z" fill="white"/>
</svg>
