<svg width="277" height="243" viewBox="0 0 277 243" fill="none" xmlns="http://www.w3.org/2000/svg">
<g clip-path="url(#clip0_2277_1561)">
<path d="M7.05126 239.244C6.20372 214.709 5.97447 190.147 6.64139 165.605C7.30136 141.097 8.85055 116.611 11.5321 92.2429C12.6645 81.9424 13.6232 71.4681 15.9365 61.3483C17.7497 53.4387 20.2437 45.8419 25.2039 39.3641C27.156 36.8063 29.8376 34.3528 32.8943 32.7195C35.951 31.0861 39.626 30.2451 43.3566 30.4536C47.0872 30.6621 50.8733 32.1634 54.2357 34.4015C57.598 36.6395 60.5228 39.6699 62.8709 42.9088C68.5536 50.7836 71.0892 59.7358 72.3397 69.2996C73.8125 80.5106 73.9723 91.9162 76.5913 102.96C77.2235 105.629 78.0154 108.257 78.9741 110.828C80.1899 114.088 84.9278 113.65 85.1153 109.994C85.5738 101.077 86.0671 92.1526 86.5881 83.2352C87.3106 70.9329 87.8316 58.5611 89.1863 46.3075C89.228 45.9183 89.2836 45.536 89.3253 45.1468C89.3878 44.5421 89.1794 46.0504 89.2905 45.4109C89.3183 45.265 89.3322 45.1121 89.36 44.9661C89.4573 44.3614 89.5823 43.7637 89.6796 43.159C90.0339 41.0461 90.3534 38.9262 90.7494 36.8133C91.2913 33.9427 91.9443 31.0931 92.771 28.292C93.2295 26.749 93.7366 25.2199 94.3132 23.7186C94.4661 23.3155 94.6328 22.9193 94.7926 22.5162C94.8412 22.3911 95.0288 21.9671 94.7787 22.544C94.8621 22.3425 94.9524 22.1479 95.0427 21.9463C95.3761 21.1956 95.7374 20.445 96.1125 19.7152C96.8698 18.2487 97.7034 16.8238 98.6482 15.4754C98.8983 15.121 99.1484 14.7734 99.4124 14.4329C99.0025 14.975 99.6833 14.1062 99.8153 13.9602C100.343 13.3347 100.892 12.737 101.476 12.1601C103.643 10.0263 106.2 8.42771 109.013 7.5589C109.875 7.29479 110.75 7.08627 111.639 6.92641C111.882 6.88471 112.119 6.84301 112.362 6.80826C112.223 6.82911 111.785 6.86386 112.417 6.80826C112.924 6.76655 113.438 6.71095 113.946 6.6901C115.009 6.64145 116.064 6.65535 117.127 6.75265C117.746 6.80826 117.419 6.76655 118.149 6.91251C118.697 7.01677 119.239 7.14883 119.781 7.30174C123.567 8.37905 126.839 10.7839 129.667 13.8282C135.85 20.4867 139.351 29.4249 141.553 38.2937C144.318 49.4491 146.395 60.7366 147.403 72.1909C147.681 75.3742 147.889 78.5575 148.042 81.7478C148.236 85.7651 154.114 85.779 154.294 81.7478C154.683 72.9624 155.704 62.9955 161.095 56.0729C164.006 52.3336 168.16 49.4005 172.801 48.3162C177.442 47.2319 182.36 48.49 186.494 50.8601C195.073 55.7879 199.394 64.7053 202.312 73.7965C205.883 84.9241 207.599 96.3576 208.203 108.006C208.919 121.754 208.439 135.523 209.051 149.278C209.204 152.802 214.115 153.525 215.192 150.112C216.449 146.143 218.339 142.606 221.236 139.888C221.562 139.582 221.903 139.29 222.243 139.005C222.674 138.644 221.674 139.415 222.417 138.866C222.57 138.755 222.73 138.637 222.889 138.533C223.667 137.998 224.48 137.511 225.328 137.094C225.501 137.011 226.405 136.601 225.849 136.837C226.231 136.677 226.62 136.531 227.009 136.399C227.829 136.114 228.669 135.885 229.517 135.711C229.92 135.627 230.323 135.558 230.726 135.488C231.254 135.398 229.968 135.558 230.837 135.475C231.017 135.461 231.198 135.433 231.379 135.419C232.233 135.343 233.095 135.315 233.956 135.322C234.769 135.336 235.582 135.384 236.387 135.468C236.61 135.488 236.832 135.516 237.061 135.544C236.936 135.53 236.436 135.433 237.034 135.544C237.471 135.627 237.916 135.697 238.36 135.787C239.965 136.114 241.535 136.58 243.064 137.164C243.237 137.233 244.286 137.678 243.633 137.386C243.981 137.546 244.335 137.699 244.675 137.866C245.467 138.248 246.245 138.665 246.996 139.131C254.769 143.926 257.652 153.879 259.591 162.498C262.397 174.96 264.523 187.61 266.399 200.239C268.323 213.208 269.789 226.219 270.741 239.3C270.866 240.982 272.088 242.428 273.867 242.428C275.465 242.428 277.118 240.996 276.993 239.3C275.096 213.229 271.387 187.137 265.794 161.601C263.592 151.544 260.126 140.861 251.421 134.578C245.266 130.137 236.929 128.33 229.475 129.4C225.029 130.039 220.903 131.958 217.492 134.884C213.386 138.408 210.781 143.37 209.169 148.465L215.31 149.299C214.734 136.232 215.136 123.145 214.567 110.078C214.011 97.414 212.358 84.8685 208.544 72.7539C205.272 62.3769 200.374 52.2432 190.905 46.2311C186.014 43.1312 180.116 41.1712 174.281 41.7967C168.355 42.4361 162.902 45.2789 158.678 49.4561C150.195 57.8452 148.57 70.4186 148.063 81.7617H154.315C153.704 69.2718 152.127 56.8652 149.466 44.6464C147.25 34.471 144.596 24.3164 138.823 15.5032C133.543 7.44074 125.638 0.587624 115.578 0.399962C107.652 0.254003 100.177 3.70142 95.1538 9.82474C90.666 15.2947 87.9497 21.9602 86.1574 28.7577C84.9486 33.3519 84.2956 38.0296 83.4481 42.6933C82.6769 46.9261 82.4616 51.291 82.1351 55.5794C81.614 62.5159 81.1764 69.4664 80.7526 76.4098C80.0857 87.4124 79.4743 98.4149 78.8977 109.424C78.8908 109.612 78.8769 109.8 78.8699 109.987L85.0111 109.153C77.2443 88.3785 82.3713 64.5802 71.4505 44.7645C66.921 36.5491 60.0712 29.2234 51.179 25.8177C43.0023 22.69 33.4779 24.1357 26.503 29.3902C19.5282 34.6447 15.4016 42.3736 12.5672 50.3874C9.33685 59.5412 8.10722 69.1466 6.88453 78.7313C3.68889 103.76 1.73677 128.934 0.764177 154.143C-0.208411 179.353 -0.201464 204.652 0.507136 229.889C0.597448 233.003 0.694707 236.117 0.798913 239.231C0.937854 243.248 7.1902 243.262 7.05126 239.231V239.244Z" fill="white"/>
</g>
<defs>
<clipPath id="clip0_2277_1561">
<rect width="277" height="242" fill="white" transform="translate(0 0.400024)"/>
</clipPath>
</defs>
</svg>
