<svg width="32" height="27" viewBox="0 0 32 27" fill="none" xmlns="http://www.w3.org/2000/svg">
<path d="M27.9231 3.52174H23.7917L21.7603 0.522391C21.6515 0.361788 21.5041 0.230091 21.3312 0.13897C21.1584 0.047849 20.9653 0.000115931 20.7692 0H11.2308C11.0347 0.000115931 10.8416 0.047849 10.6688 0.13897C10.4959 0.230091 10.3485 0.361788 10.2397 0.522391L8.20678 3.52174H4.07692C3.12826 3.52174 2.21846 3.89278 1.54766 4.55323C0.876853 5.21369 0.5 6.10945 0.5 7.04348V23.4783C0.5 24.4123 0.876853 25.3081 1.54766 25.9685C2.21846 26.629 3.12826 27 4.07692 27H27.9231C28.8717 27 29.7815 26.629 30.4523 25.9685C31.1231 25.3081 31.5 24.4123 31.5 23.4783V7.04348C31.5 6.10945 31.1231 5.21369 30.4523 4.55323C29.7815 3.89278 28.8717 3.52174 27.9231 3.52174ZM29.1154 23.4783C29.1154 23.7896 28.9898 24.0882 28.7662 24.3083C28.5426 24.5285 28.2393 24.6522 27.9231 24.6522H4.07692C3.7607 24.6522 3.45744 24.5285 3.23383 24.3083C3.01023 24.0882 2.88462 23.7896 2.88462 23.4783V7.04348C2.88462 6.73214 3.01023 6.43355 3.23383 6.2134C3.45744 5.99325 3.7607 5.86957 4.07692 5.86957H8.84615C9.0425 5.86969 9.23584 5.82207 9.409 5.73094C9.58216 5.63981 9.72978 5.50798 9.83875 5.34717L11.8687 2.34783H20.1299L22.1612 5.34717C22.2702 5.50798 22.4178 5.63981 22.591 5.73094C22.7642 5.82207 22.9575 5.86969 23.1538 5.86957H27.9231C28.2393 5.86957 28.5426 5.99325 28.7662 6.2134C28.9898 6.43355 29.1154 6.73214 29.1154 7.04348V23.4783ZM16 8.21739C14.703 8.21739 13.4351 8.59606 12.3567 9.30551C11.2783 10.015 10.4378 11.0233 9.94148 12.2031C9.44515 13.3829 9.31528 14.6811 9.56831 15.9335C9.82134 17.186 10.4459 18.3364 11.363 19.2394C12.2801 20.1423 13.4486 20.7572 14.7207 21.0064C15.9927 21.2555 17.3113 21.1276 18.5095 20.639C19.7078 20.1503 20.732 19.3227 21.4525 18.261C22.1731 17.1992 22.5577 15.9509 22.5577 14.6739C22.5557 12.9621 21.8642 11.321 20.6348 10.1106C19.4054 8.9002 17.7386 8.21933 16 8.21739ZM16 18.7826C15.1746 18.7826 14.3678 18.5416 13.6816 18.0902C12.9953 17.6387 12.4604 16.997 12.1446 16.2462C11.8287 15.4955 11.7461 14.6694 11.9071 13.8723C12.0681 13.0753 12.4656 12.3432 13.0492 11.7686C13.6328 11.194 14.3764 10.8027 15.1859 10.6442C15.9954 10.4856 16.8344 10.567 17.597 10.878C18.3595 11.1889 19.0112 11.7156 19.4698 12.3912C19.9283 13.0669 20.1731 13.8613 20.1731 14.6739C20.1731 15.7636 19.7334 16.8087 18.9508 17.5792C18.1682 18.3497 17.1068 18.7826 16 18.7826Z" fill="white"/>
</svg>
