<svg width="18" height="30" viewBox="0 0 18 30" fill="none" xmlns="http://www.w3.org/2000/svg">
<path d="M17.0908 15.0525L10.9729 10.9565L14.0571 2.40627C14.1647 2.15233 14.2148 1.87099 14.2027 1.58859C14.1906 1.30618 14.1166 1.03195 13.9878 0.791545C13.859 0.55114 13.6794 0.352424 13.466 0.213991C13.2526 0.0755573 13.0122 0.00193213 12.7675 4.7313e-06C12.4422 -0.000888526 12.1261 0.124726 11.8702 0.356613L11.7692 0.456596L0.950072 12.288C0.787429 12.4664 0.662964 12.6861 0.586525 12.9297C0.510086 13.1733 0.483771 13.4341 0.509662 13.6915C0.535553 13.9488 0.612938 14.1957 0.735696 14.4126C0.858454 14.6294 1.02322 14.8103 1.21694 14.9409L7.33625 19.0402L4.21601 27.6888C4.08731 28.0415 4.0678 28.4348 4.16075 28.8022C4.25371 29.1697 4.45346 29.4889 4.72636 29.7061C4.99925 29.9233 5.32861 30.0252 5.65896 29.9947C5.9893 29.9642 6.30044 29.803 6.53996 29.5385L17.3591 17.7038C17.5214 17.5252 17.6455 17.3055 17.7217 17.062C17.7978 16.8185 17.8239 16.5579 17.7979 16.3008C17.7719 16.0436 17.6945 15.797 17.5717 15.5803C17.449 15.3637 17.2844 15.183 17.0908 15.0525Z" fill="#A2A2A2"/>
</svg>
