<svg width="16" height="16" viewBox="0 0 16 16" fill="none" xmlns="http://www.w3.org/2000/svg">
<path d="M8 16C6.89712 16 5.86283 15.7915 4.89712 15.3745C3.93141 14.963 3.08093 14.3896 2.34568 13.6543C1.61043 12.9191 1.03429 12.0686 0.617284 11.1029C0.205761 10.1317 0 9.09739 0 8C0 6.89712 0.205761 5.86283 0.617284 4.89712C1.03429 3.93141 1.61043 3.08093 2.34568 2.34568C3.08093 1.61043 3.93141 1.03704 4.89712 0.625514C5.86283 0.208505 6.89712 0 8 0C9.10288 0 10.1344 0.208505 11.0946 0.625514C12.0604 1.03704 12.9108 1.61043 13.6461 2.34568C14.3813 3.08093 14.9547 3.93141 15.3663 4.89712C15.7833 5.86283 15.9918 6.89712 15.9918 8C15.9918 9.09739 15.7833 10.1317 15.3663 11.1029C14.9547 12.0686 14.3813 12.9191 13.6461 13.6543C12.9108 14.3896 12.0604 14.963 11.0946 15.3745C10.1344 15.7915 9.10288 16 8 16ZM7.99177 14.749C8.57887 14.749 9.16324 14.6694 9.74485 14.5103C10.3265 14.3512 10.8752 14.1235 11.3909 13.8272C11.9122 13.5309 12.3704 13.1715 12.7654 12.749C12.4746 12.299 12.0878 11.9177 11.6049 11.6049C11.1221 11.2867 10.5734 11.0453 9.95885 10.8807C9.34431 10.7161 8.68861 10.6337 7.99177 10.6337C7.28944 10.6337 6.62826 10.7188 6.00823 10.8889C5.39369 11.0535 4.84499 11.2949 4.36214 11.6132C3.88477 11.9259 3.50069 12.3045 3.20988 12.749C3.61042 13.1715 4.06859 13.5309 4.58436 13.8272C5.10562 14.1235 5.65706 14.3512 6.23868 14.5103C6.8203 14.6694 7.40466 14.749 7.99177 14.749ZM7.99177 9.30864C8.49657 9.31413 8.95199 9.18793 9.35802 8.93004C9.76406 8.66667 10.085 8.31276 10.321 7.86831C10.5624 7.41838 10.6831 6.91084 10.6831 6.34568C10.6831 5.81893 10.5624 5.33608 10.321 4.89712C10.0796 4.45816 9.75583 4.107 9.34979 3.84362C8.94376 3.58025 8.49108 3.44856 7.99177 3.44856C7.49245 3.44856 7.03704 3.58025 6.62551 3.84362C6.21948 4.107 5.89575 4.45816 5.65432 4.89712C5.41838 5.33608 5.30041 5.81893 5.30041 6.34568C5.30041 6.91084 5.41838 7.41564 5.65432 7.86008C5.89575 8.29904 6.21948 8.65021 6.62551 8.91358C7.03155 9.17147 7.48697 9.30315 7.99177 9.30864Z" fill="black"/>
</svg>
