<svg width="25" height="25" viewBox="0 0 25 25" fill="none" xmlns="http://www.w3.org/2000/svg">
<rect x="0.25" y="0.5" width="24" height="24" rx="12" fill="#A9A9A9"/>
<path d="M17.9972 17.0352C18.1581 17.1962 18.2486 17.4145 18.2486 17.6422C18.2486 17.8698 18.1581 18.0881 17.9972 18.2491C17.8362 18.41 17.6179 18.5005 17.3903 18.5005C17.1626 18.5005 16.9443 18.41 16.7833 18.2491L12.25 13.7143L7.71523 18.2476C7.55427 18.4086 7.33595 18.499 7.10831 18.499C6.88068 18.499 6.66236 18.4086 6.50139 18.2476C6.34043 18.0867 6.25 17.8684 6.25 17.6407C6.25 17.4131 6.34043 17.1948 6.50139 17.0338L11.0362 12.5005L6.50282 7.9657C6.34186 7.80474 6.25143 7.58642 6.25143 7.35878C6.25143 7.13115 6.34186 6.91283 6.50282 6.75186C6.66379 6.5909 6.8821 6.50047 7.10974 6.50047C7.33738 6.50047 7.5557 6.5909 7.71666 6.75186L12.25 11.2866L16.7848 6.75115C16.9457 6.59019 17.164 6.49976 17.3917 6.49976C17.6193 6.49976 17.8376 6.59019 17.9986 6.75115C18.1596 6.91212 18.25 7.13043 18.25 7.35807C18.25 7.58571 18.1596 7.80403 17.9986 7.96499L13.4638 12.5005L17.9972 17.0352Z" fill="white"/>
</svg>
