<svg width="298" height="150" viewBox="0 0 298 150" fill="none" xmlns="http://www.w3.org/2000/svg">
<rect width="298" height="149.44" rx="10" fill="#9E1A7E"/>
<g clip-path="url(#clip0_24_921)">
<path d="M157.115 47.0501C156.585 45.1801 154.655 44.2501 152.435 44.7701C150.865 45.1401 149.645 46.0301 148.695 47.1101C148.815 45.1701 148.905 43.3801 148.965 41.6501C149.085 37.9501 149.065 34.5901 148.885 31.3901C148.785 29.6001 148.645 27.8401 148.455 26.1701L148.405 25.7001C148.275 24.4601 148.135 23.1901 147.715 21.9501C147.195 20.4101 146.385 19.3601 145.305 18.8401C143.925 18.1801 142.295 18.4501 141.055 19.5701C140.785 19.8101 140.545 20.0801 140.325 20.3701C140.115 19.3001 139.775 18.1301 138.945 17.2001C138.215 16.3801 137.135 15.9301 136.045 16.0101C134.875 16.0801 133.805 16.7901 133.015 17.9901C132.415 18.9101 132.095 19.9301 131.875 20.8801C130.795 20.1801 129.445 20.1101 128.255 20.7501C127.145 21.3401 126.345 22.4001 125.815 23.9801C125.205 25.8101 125.095 27.6801 125.055 29.5001C124.495 29.3501 123.885 29.3401 123.265 29.4701C122.305 29.6701 121.465 30.2001 120.905 30.9501C120.255 31.8301 120.005 32.8601 119.815 33.7501C118.905 38.1701 118.575 42.6001 118.355 46.7401L118.135 50.7701C117.975 53.8001 117.805 56.8401 117.645 59.8701C117.535 61.9901 117.425 64.2501 117.455 66.5301C117.485 68.6401 117.655 70.8001 117.955 72.9701C118.495 76.7701 119.485 80.8701 120.995 85.5101C121.145 85.9701 121.505 86.3001 121.975 86.4001C122.065 86.4201 122.165 86.4301 122.255 86.4301C122.635 86.4301 122.995 86.2701 123.255 85.9901C123.565 85.6501 123.665 85.1701 123.515 84.7201C121.915 79.7901 120.935 75.6601 120.455 71.7301C119.935 67.5501 120.105 63.2601 120.305 59.5701L120.975 46.9801C121.185 43.0701 121.485 38.8901 122.295 34.7401C122.575 33.3101 122.825 32.3501 123.665 32.0901C123.975 32.0001 124.255 31.9901 124.475 32.0801C124.785 32.2001 124.955 32.5701 125.055 32.8701C125.255 33.4801 125.865 33.8601 126.495 33.7801C127.135 33.6901 127.615 33.1601 127.635 32.5201C127.665 31.8301 127.665 31.1501 127.675 30.4601C127.675 29.7701 127.675 29.0901 127.715 28.4001C127.775 27.1401 127.935 26.0601 128.225 25.1001C128.445 24.3601 128.755 23.5601 129.345 23.1701C129.865 22.8301 130.375 22.9101 130.735 23.3801C131.135 23.8901 131.205 24.7401 131.235 25.5001C131.265 26.2201 131.835 26.7701 132.555 26.7701C133.275 26.7701 133.835 26.2301 133.875 25.5101C133.945 24.1801 134.125 22.8601 134.415 21.5901C134.635 20.6501 134.915 19.6901 135.515 19.0501C135.715 18.8401 136.115 18.5201 136.625 18.7201C136.965 18.8601 137.215 19.2701 137.365 19.6001C137.585 20.0901 137.705 20.6601 137.785 21.1001L137.895 21.7601C137.905 21.8301 137.905 21.8401 137.925 21.9601C138.105 23.6901 138.185 25.4801 138.265 27.2101L138.325 28.4501C138.355 29.0901 138.815 29.6101 139.445 29.7001C140.075 29.8001 140.675 29.4401 140.895 28.8301C141.295 27.7201 141.395 26.6101 141.495 25.5301C141.545 24.9301 141.605 24.3601 141.705 23.8101C141.935 22.5401 142.535 21.5801 143.295 21.2301C143.895 20.9601 144.435 21.3401 144.715 21.7501C145.245 22.5201 145.455 23.5501 145.575 24.3701C145.985 27.1301 146.235 30.1501 146.345 33.8701C146.555 40.8201 146.055 47.7701 145.595 53.0401C145.535 53.6901 145.935 54.2501 146.565 54.4001C147.225 54.5501 147.905 54.2001 148.165 53.5401C148.805 51.9001 149.475 50.2001 150.595 48.9401C151.445 47.9901 152.885 47.0601 154.025 47.3001C154.245 47.3401 154.895 47.4801 154.515 49.4301C154.375 50.1301 154.235 50.8301 154.085 51.5301C153.865 52.5901 153.635 53.6401 153.455 54.7101C152.825 58.3301 152.395 62.0101 152.175 65.6601C152.135 66.2501 152.125 66.8401 152.105 67.4301C152.075 68.6601 152.045 69.8201 151.845 70.9501C151.595 72.3801 150.905 73.6401 149.945 75.0901C148.215 77.7001 146.585 80.4201 145.015 83.0401L144.245 84.3301C143.865 84.9601 144.075 85.7501 144.705 86.1301C145.345 86.5101 146.135 86.3201 146.515 85.6801L147.515 84.0201C148.305 82.7001 149.095 81.3801 149.905 80.0601C150.465 79.1501 151.035 78.2401 151.625 77.3501L151.925 76.9001C152.355 76.2601 152.795 75.5901 153.195 74.8901C153.725 73.9401 154.075 73.0801 154.295 72.2001C154.555 71.1701 154.635 70.1201 154.675 69.3201L154.755 67.6901C154.815 66.3301 154.885 64.9201 154.995 63.5401C155.315 59.7201 155.875 55.8701 156.655 52.1201C156.715 51.8301 156.795 51.5301 156.865 51.2201C157.185 49.9301 157.545 48.4601 157.135 47.0301L157.115 47.0501Z" fill="url(#paint0_linear_24_921)"/>
<path d="M171.855 63.66C171.855 64.23 172.315 64.7 172.895 64.7C173.475 64.7 173.935 64.24 173.935 63.66H171.865H171.855ZM173.625 38.04C173.225 37.64 172.565 37.64 172.155 38.04L165.555 44.64C165.155 45.04 165.155 45.7 165.555 46.11C165.955 46.51 166.615 46.51 167.025 46.11L172.895 40.24L178.765 46.11C179.165 46.51 179.825 46.51 180.235 46.11C180.635 45.7 180.635 45.05 180.235 44.64L173.635 38.04H173.625ZM173.925 63.66V38.77H171.855V63.66H173.925Z" fill="white"/>
</g>
<path d="M70.85 128.44V115.93H73.064L77.456 125.74L81.83 115.93H84.026V128.44H81.974V119.872L78.158 128.44H76.736L72.902 119.872V128.44H70.85ZM90.899 120.088C89.513 120.088 88.397 121.024 88.181 122.59H93.671C93.635 121.06 92.429 120.088 90.899 120.088ZM95.543 125.488C94.985 127.216 93.419 128.602 90.989 128.602C88.145 128.602 86.039 126.586 86.039 123.472C86.039 120.358 88.055 118.36 90.989 118.36C93.815 118.36 95.813 120.322 95.813 123.238C95.813 123.58 95.795 123.904 95.741 124.246H88.163C88.307 125.884 89.477 126.874 90.989 126.874C92.249 126.874 92.951 126.262 93.329 125.488H95.543ZM97.1484 123.436C97.1484 120.376 99.2184 118.36 101.828 118.36C103.502 118.36 104.654 119.152 105.266 119.962V118.522H107.336V128.44H105.266V126.964C104.636 127.81 103.448 128.602 101.792 128.602C99.2184 128.602 97.1484 126.496 97.1484 123.436ZM105.266 123.472C105.266 121.348 103.808 120.142 102.26 120.142C100.73 120.142 99.2544 121.294 99.2544 123.436C99.2544 125.578 100.73 126.82 102.26 126.82C103.808 126.82 105.266 125.614 105.266 123.472ZM117.43 125.668C117.43 127.342 115.972 128.602 113.632 128.602C111.256 128.602 109.582 127.198 109.492 125.398H111.616C111.688 126.208 112.462 126.874 113.596 126.874C114.784 126.874 115.414 126.37 115.414 125.686C115.414 123.742 109.654 124.858 109.654 121.222C109.654 119.638 111.13 118.36 113.47 118.36C115.72 118.36 117.196 119.566 117.304 121.546H115.252C115.18 120.682 114.514 120.088 113.398 120.088C112.3 120.088 111.724 120.538 111.724 121.204C111.724 123.202 117.322 122.086 117.43 125.668ZM128.629 118.522V128.44H126.577V127.252C125.929 128.098 124.813 128.584 123.643 128.584C121.321 128.584 119.557 127.126 119.557 124.354V118.522H121.591V124.048C121.591 125.866 122.581 126.802 124.075 126.802C125.587 126.802 126.577 125.866 126.577 124.048V118.522H128.629ZM133.388 123.22V128.44H131.336V118.522H133.388V119.962C133.964 118.972 134.954 118.36 136.358 118.36V120.484H135.836C134.324 120.484 133.388 121.114 133.388 123.22ZM142.421 120.088C141.035 120.088 139.919 121.024 139.703 122.59H145.193C145.157 121.06 143.951 120.088 142.421 120.088ZM147.065 125.488C146.507 127.216 144.941 128.602 142.511 128.602C139.667 128.602 137.561 126.586 137.561 123.472C137.561 120.358 139.577 118.36 142.511 118.36C145.337 118.36 147.335 120.322 147.335 123.238C147.335 123.58 147.317 123.904 147.263 124.246H139.685C139.829 125.884 140.999 126.874 142.511 126.874C143.771 126.874 144.473 126.262 144.851 125.488H147.065ZM154.03 128.44V115.93H156.244L160.636 125.74L165.01 115.93H167.206V128.44H165.154V119.872L161.338 128.44H159.916L156.082 119.872V128.44H154.03ZM173.809 126.082L176.707 118.522H178.831L172.747 133.102H170.623L172.639 128.278L168.733 118.522H171.019L173.809 126.082ZM193.281 115.912H195.333V128.44H193.281L187.107 119.098V128.44H185.055V115.912H187.107L193.281 125.236V115.912ZM197.344 123.436C197.344 120.376 199.414 118.36 202.024 118.36C203.698 118.36 204.85 119.152 205.462 119.962V118.522H207.532V128.44H205.462V126.964C204.832 127.81 203.644 128.602 201.988 128.602C199.414 128.602 197.344 126.496 197.344 123.436ZM205.462 123.472C205.462 121.348 204.004 120.142 202.456 120.142C200.926 120.142 199.45 121.294 199.45 123.436C199.45 125.578 200.926 126.82 202.456 126.82C204.004 126.82 205.462 125.614 205.462 123.472ZM210.227 128.44V118.522H212.279V128.44H210.227ZM211.271 117.208C210.533 117.208 209.957 116.632 209.957 115.894C209.957 115.156 210.533 114.58 211.271 114.58C211.991 114.58 212.567 115.156 212.567 115.894C212.567 116.632 211.991 117.208 211.271 117.208ZM214.973 128.44V115.12H217.025V128.44H214.973ZM227.117 125.668C227.117 127.342 225.659 128.602 223.319 128.602C220.943 128.602 219.269 127.198 219.179 125.398H221.303C221.375 126.208 222.149 126.874 223.283 126.874C224.471 126.874 225.101 126.37 225.101 125.686C225.101 123.742 219.341 124.858 219.341 121.222C219.341 119.638 220.817 118.36 223.157 118.36C225.407 118.36 226.883 119.566 226.991 121.546H224.939C224.867 120.682 224.201 120.088 223.085 120.088C221.987 120.088 221.411 120.538 221.411 121.204C221.411 123.202 227.009 122.086 227.117 125.668Z" fill="white"/>
<defs>
<linearGradient id="paint0_linear_24_921" x1="137.385" y1="17.6601" x2="137.385" y2="80.7901" gradientUnits="userSpaceOnUse">
<stop stop-color="white"/>
<stop offset="1" stop-color="white" stop-opacity="0"/>
</linearGradient>
<clipPath id="clip0_24_921">
<rect width="63.05" height="70.44" fill="white" transform="translate(117.475 16)"/>
</clipPath>
</defs>
</svg>
