<svg width="277" height="243" viewBox="0 0 277 243" fill="none" xmlns="http://www.w3.org/2000/svg">
<g clip-path="url(#clip0_2277_1524)">
<path d="M269.949 239.244C270.796 214.709 271.026 190.147 270.359 165.605C269.699 141.097 268.149 116.611 265.468 92.2429C264.336 81.9424 263.377 71.4681 261.063 61.3483C259.25 53.4387 256.756 45.8419 251.796 39.3641C249.844 36.8063 247.162 34.3528 244.106 32.7195C241.049 31.0861 237.374 30.2451 233.643 30.4536C229.913 30.6621 226.127 32.1634 222.764 34.4015C219.402 36.6395 216.477 39.6699 214.129 42.9088C208.446 50.7836 205.911 59.7358 204.66 69.2996C203.188 80.5106 203.028 91.9162 200.409 102.96C199.777 105.629 198.985 108.257 198.026 110.828C196.81 114.088 192.072 113.65 191.885 109.994C191.426 101.077 190.933 92.1526 190.412 83.2352C189.689 70.9329 189.168 58.5611 187.814 46.3075C187.772 45.9183 187.716 45.536 187.675 45.1468C187.612 44.5421 187.821 46.0504 187.709 45.4109C187.682 45.265 187.668 45.1121 187.64 44.9661C187.543 44.3614 187.418 43.7637 187.32 43.159C186.966 41.0461 186.647 38.9262 186.251 36.8133C185.709 33.9427 185.056 31.0931 184.229 28.292C183.77 26.749 183.263 25.2199 182.687 23.7186C182.534 23.3155 182.367 22.9193 182.207 22.5162C182.159 22.3911 181.971 21.9671 182.221 22.544C182.138 22.3425 182.048 22.1479 181.957 21.9463C181.624 21.1956 181.263 20.445 180.887 19.7152C180.13 18.2487 179.297 16.8238 178.352 15.4754C178.102 15.121 177.852 14.7734 177.588 14.4329C177.997 14.975 177.317 14.1062 177.185 13.9602C176.657 13.3347 176.108 12.737 175.524 12.1601C173.357 10.0263 170.8 8.42771 167.987 7.5589C167.125 7.29479 166.25 7.08627 165.361 6.92641C165.118 6.88471 164.881 6.84301 164.638 6.80826C164.777 6.82911 165.215 6.86386 164.583 6.80826C164.076 6.76655 163.561 6.71095 163.054 6.6901C161.991 6.64145 160.936 6.65535 159.873 6.75265C159.254 6.80826 159.581 6.76655 158.851 6.91251C158.303 7.01677 157.761 7.14883 157.219 7.30174C153.433 8.37905 150.161 10.7839 147.333 13.8282C141.15 20.4867 137.649 29.4249 135.447 38.2937C132.682 49.4491 130.605 60.7366 129.597 72.1909C129.319 75.3742 129.111 78.5575 128.958 81.7478C128.764 85.7651 122.886 85.779 122.706 81.7478C122.317 72.9624 121.296 62.9955 115.905 56.0729C112.994 52.3336 108.84 49.4005 104.199 48.3162C99.5583 47.2319 94.6397 48.49 90.5063 50.8601C81.9266 55.7879 77.6056 64.7053 74.6878 73.7965C71.117 84.9241 69.4011 96.3576 68.7967 108.006C68.0812 121.754 68.5605 135.523 67.9492 149.278C67.7963 152.802 62.8848 153.525 61.808 150.112C60.5505 146.143 58.661 142.606 55.764 139.888C55.4375 139.582 55.0971 139.29 54.7567 139.005C54.326 138.644 55.3264 139.415 54.583 138.866C54.4302 138.755 54.2704 138.637 54.1106 138.533C53.3326 137.998 52.5197 137.511 51.6722 137.094C51.4985 137.011 50.5954 136.601 51.1512 136.837C50.7691 136.677 50.3801 136.531 49.991 136.399C49.1713 136.114 48.3307 135.885 47.4831 135.711C47.0802 135.627 46.6773 135.558 46.2744 135.488C45.7464 135.398 47.0316 135.558 46.1632 135.475C45.9826 135.461 45.802 135.433 45.6213 135.419C44.7668 135.343 43.9054 135.315 43.044 135.322C42.2312 135.336 41.4184 135.384 40.6125 135.468C40.3902 135.488 40.1679 135.516 39.9386 135.544C40.0637 135.53 40.5639 135.433 39.9664 135.544C39.5288 135.627 39.0842 135.697 38.6395 135.787C37.0348 136.114 35.4647 136.58 33.9364 137.164C33.7627 137.233 32.7137 137.678 33.3667 137.386C33.0194 137.546 32.6651 137.699 32.3246 137.866C31.5327 138.248 30.7546 138.665 30.0043 139.131C22.2306 143.926 19.3476 153.879 17.4093 162.498C14.6027 174.96 12.4769 187.61 10.6012 200.239C8.67687 213.208 7.21105 226.219 6.2593 239.3C6.13427 240.982 4.91158 242.428 3.13314 242.428C1.5353 242.428 -0.118084 240.996 0.00694656 239.3C1.90349 213.229 5.61324 187.137 11.2056 161.601C13.4078 151.544 16.8744 140.861 25.5791 134.578C31.7342 130.137 40.0706 128.33 47.5248 129.4C51.9709 130.039 56.0975 131.958 59.5085 134.884C63.6142 138.408 66.2193 143.37 67.8311 148.465L61.6899 149.299C62.2665 136.232 61.8636 123.145 62.4332 110.078C62.989 97.414 64.6424 84.8685 68.4563 72.7539C71.7284 62.3769 76.6261 52.2432 86.0949 46.2311C90.9856 43.1312 96.8837 41.1712 102.719 41.7967C108.645 42.4361 114.098 45.2789 118.322 49.4561C126.805 57.8452 128.43 70.4186 128.937 81.7617H122.685C123.296 69.2718 124.873 56.8652 127.534 44.6464C129.75 34.471 132.404 24.3164 138.177 15.5032C143.457 7.44074 151.362 0.587624 161.422 0.399962C169.348 0.254003 176.823 3.70142 181.846 9.82474C186.334 15.2947 189.05 21.9602 190.843 28.7577C192.051 33.3519 192.704 38.0296 193.552 42.6933C194.323 46.9261 194.538 51.291 194.865 55.5794C195.386 62.5159 195.824 69.4664 196.247 76.4098C196.914 87.4124 197.526 98.4149 198.102 109.424C198.109 109.612 198.123 109.8 198.13 109.987L191.989 109.153C199.756 88.3785 194.629 64.5802 205.55 44.7645C210.079 36.5491 216.929 29.2234 225.821 25.8177C233.998 22.69 243.522 24.1357 250.497 29.3902C257.472 34.6447 261.598 42.3736 264.433 50.3874C267.663 59.5412 268.893 69.1466 270.115 78.7313C273.311 103.76 275.263 128.934 276.236 154.143C277.208 179.353 277.201 204.652 276.493 229.889C276.403 233.003 276.305 236.117 276.201 239.231C276.062 243.248 269.81 243.262 269.949 239.231V239.244Z" fill="white"/>
</g>
<defs>
<clipPath id="clip0_2277_1524">
<rect width="277" height="242" fill="white" transform="matrix(-1 0 0 1 277 0.400024)"/>
</clipPath>
</defs>
</svg>
