<svg width="308" height="36" viewBox="0 0 308 36" fill="none" xmlns="http://www.w3.org/2000/svg">
<g clip-path="url(#clip0_559_2762)">
<path d="M239.987 31.9967C237.871 33.2761 236.029 33.8342 233.522 33.8342C223.437 33.8342 220.372 18.4562 212.348 16.5629C216.916 16.4513 221.656 13.5534 221.656 8.37161C221.656 2.46426 216.251 0.124501 210.957 0.124501H203.693C203.019 0.094449 202.427 0.0472245 201.68 0V0.386382C202.856 0.420727 203.44 0.974542 203.534 1.99201V25.6944C203.423 26.669 202.839 27.2013 201.688 27.2356V27.622C202.925 27.5448 203.736 27.4675 205.204 27.4675C206.673 27.4675 207.523 27.5448 208.952 27.622V27.2356C207.677 27.197 206.999 26.5616 206.999 25.3638V16.7303H210.12C220.316 16.7303 219.148 35.2853 231.182 35.2853C234.694 35.2853 237.313 34.3923 240.266 32.3874L239.987 31.9967ZM206.999 16.2281V0.566694H210.678C215.525 0.566694 218.2 3.52037 218.2 8.36732C218.2 13.2143 215.302 16.2238 210.678 16.2238H206.999V16.2281Z" fill="#1D1D1B"/>
<path d="M66.7592 24.518H67.6264L77.5436 1.84598V25.3466C77.5436 26.5659 76.8738 27.1583 75.5773 27.1969V27.5919C77.0327 27.5146 77.9385 27.4331 79.3939 27.4331C80.8493 27.4331 81.7165 27.5103 82.9744 27.5919V27.1969C81.6736 27.1583 81.0081 26.5659 81.0081 25.3466V2.24095C81.0081 1.0217 81.6392 0.42925 82.8971 0.42925H82.9744V0.0385742C82.0685 0.115851 81.4804 0.19742 80.4157 0.19742C79.351 0.19742 78.7628 0.120144 77.6595 0.0385742L68.6868 20.5855L59.7142 0.0385742C58.8083 0.115851 58.1386 0.19742 57.1555 0.19742C56.0521 0.193127 55.3824 0.115851 54.3177 0.0385742V0.433543H54.395C55.6529 0.433543 56.2839 1.026 56.2839 2.24525V25.3509C56.2839 26.2568 55.5369 26.8878 54 27.2012V27.5962C54.9831 27.5189 55.5369 27.4374 56.5973 27.4374C57.5805 27.4374 58.1729 27.5146 59.1174 27.5962V27.2012C57.6234 26.8878 56.8721 26.2568 56.8721 25.3509V2.00483L66.7506 24.518H66.7592Z" fill="#9E1A7E"/>
<path d="M104.11 20.6242C104.11 24.8744 101.71 26.9995 96.8672 26.9995H92.6942C91.475 26.9995 90.8439 26.5659 90.8439 25.6986V13.5362H95.0555C96.2747 13.5362 97.0217 14.4807 97.2578 16.4083H97.7687C97.6915 15.1504 97.6099 14.4807 97.6099 13.2185C97.6099 11.9563 97.6872 11.2909 97.7687 10.0716H97.2578C97.0217 11.9992 96.2747 12.9437 95.0555 12.9437H90.8439V2.51571C90.8439 1.25782 91.475 0.626734 92.6942 0.626734H96.1202C100.963 0.626734 103.363 2.47707 103.363 6.2164H103.912C103.835 5.03578 103.753 4.32742 103.753 3.10817C103.753 1.88892 103.831 1.25782 103.912 0.0385742C99.9754 0.0385742 97.8117 0.115851 94.111 0.115851C90.4103 0.115851 88.2466 0.0385742 85.4131 0.0385742V0.433543H85.4904C86.7483 0.433543 87.3793 1.026 87.3793 2.24525V25.3509C87.3793 26.5702 86.7096 27.1626 85.4131 27.2012V27.5962C88.4054 27.5962 90.6464 27.5189 94.5832 27.5189H97.3008L101.985 27.5962H104.702C104.625 26.2181 104.543 25.4711 104.543 24.1316C104.543 22.7922 104.621 21.9679 104.702 20.6285H104.11V20.6242Z" fill="#9E1A7E"/>
<path d="M125.386 17.503H113.928L119.659 4.03978L125.391 17.503H125.386ZM135.239 27.5919V27.2012C133.827 27.2012 132.805 26.4542 132.217 25.0032L121.66 0.0385742H120.72L110.124 25.0032C109.652 26.1795 108.673 26.9265 107.141 27.2012V27.5919C108.162 27.5146 108.63 27.4331 109.613 27.4331C110.597 27.4331 111.185 27.5103 112.125 27.5919V27.2012C111.065 27.0038 110.554 26.5358 110.554 25.8274C110.554 25.5527 110.631 25.2779 110.751 25.0032L113.696 18.0955H125.627L128.572 25.0032C128.731 25.3938 128.808 25.7502 128.808 26.0249C128.808 26.8106 128.181 27.2012 126.885 27.2012V27.5919C128.417 27.5146 129.516 27.4331 131.122 27.4331C132.809 27.4331 133.672 27.5103 135.243 27.5919" fill="#1D1D1B"/>
<path d="M150.437 24.518H151.304L161.221 1.84598V25.3466C161.221 26.5659 160.551 27.1583 159.255 27.1969V27.5919C160.71 27.5146 161.616 27.4331 163.071 27.4331C164.527 27.4331 165.394 27.5103 166.652 27.5919V27.1969C165.351 27.1583 164.681 26.5659 164.681 25.3466V2.24095C164.681 1.0217 165.312 0.42925 166.57 0.42925H166.647V0.0385742C165.742 0.115851 165.153 0.19742 164.089 0.19742C163.024 0.19742 162.436 0.120144 161.333 0.0385742L152.36 20.5855L143.392 0.0385742C142.486 0.115851 141.816 0.19742 140.833 0.19742C139.729 0.19742 139.06 0.120144 137.999 0.0385742V0.433543H138.077C139.334 0.433543 139.966 1.026 139.966 2.24525V25.3509C139.966 26.2568 139.219 26.8878 137.682 27.2012V27.5962C138.665 27.5189 139.219 27.4374 140.279 27.4374C141.262 27.4374 141.855 27.5146 142.799 27.5962V27.2012C141.305 26.8878 140.554 26.2568 140.554 25.3509V2.00483L150.432 24.518H150.437Z" fill="#1D1D1B"/>
<path d="M244.147 17.503H232.689L238.42 4.03978L244.151 17.503H244.147ZM254 27.5919V27.2012C252.587 27.2012 251.566 26.4542 250.977 25.0032L240.416 0.0385742H239.476L228.881 25.0032C228.408 26.1795 227.43 26.9265 225.897 27.2012V27.5919C226.919 27.5146 227.387 27.4331 228.37 27.4331C229.353 27.4331 229.941 27.5103 230.881 27.5919V27.2012C229.821 27.0038 229.31 26.5358 229.31 25.8274C229.31 25.5527 229.387 25.2779 229.508 25.0032L232.453 18.0955H244.383L247.328 25.0032C247.487 25.3938 247.564 25.7502 247.564 26.0249C247.564 26.8106 246.938 27.2012 245.641 27.2012V27.5919C247.174 27.5146 248.273 27.4331 249.878 27.4331C251.566 27.4331 252.429 27.5103 254 27.5919Z" fill="#1D1D1B"/>
<path d="M199.121 6.444C198.829 4.76539 198.086 3.3186 196.845 2.14657C195.51 0.888686 193.913 0.22325 192.093 0.0815765C190.607 -0.0343382 189.199 0.240423 187.873 0.923031C186.357 1.70438 185.189 2.86353 184.284 4.29314C184.249 4.34466 184.215 4.40047 184.172 4.46916C184.133 4.41335 184.108 4.379 184.082 4.34037C183.674 3.67922 183.206 3.06101 182.648 2.52437C180.115 0.103042 177.187 -0.601032 173.89 0.635391C171.035 1.70867 169.232 4.40047 169.112 7.46577C169.069 8.52188 169.137 9.5737 169.301 10.6212C169.519 12.0294 169.97 13.356 170.7 14.5838C171.4 15.7644 172.284 16.7905 173.25 17.7564C174.693 19.2032 176.251 20.5212 177.797 21.8564C179.776 23.5736 181.742 25.2995 183.648 27.094C183.82 27.2571 183.996 27.4203 184.172 27.5834C184.215 27.5448 184.249 27.5104 184.284 27.4804C185.473 26.3899 186.653 25.2866 187.86 24.2133C189.633 22.642 191.432 21.0965 193.205 19.5295C194.385 18.4862 195.532 17.3958 196.528 16.1722C197.494 14.983 198.245 13.6736 198.683 12.1925C198.962 11.248 199.121 10.2821 199.185 9.30323C199.249 8.34586 199.288 7.39279 199.121 6.43971V6.444ZM196.875 11.291C196.82 12.1195 196.686 12.9352 196.45 13.7337C196.081 14.983 195.446 16.0907 194.626 17.0996C193.78 18.1385 192.814 19.0572 191.814 19.9416C190.311 21.2682 188.787 22.5733 187.289 23.9042C186.267 24.81 185.271 25.7459 184.266 26.669C184.236 26.6947 184.206 26.7205 184.172 26.7548C184.022 26.6132 183.871 26.4758 183.73 26.3384C182.12 24.8186 180.45 23.359 178.78 21.9036C177.475 20.7702 176.157 19.6583 174.933 18.4347C174.117 17.619 173.366 16.7475 172.774 15.7472C172.16 14.7083 171.778 13.5878 171.589 12.3943C171.451 11.5099 171.391 10.6169 171.43 9.72396C171.533 7.12661 173.057 4.85125 175.474 3.9411C178.26 2.89358 180.742 3.49462 182.884 5.54244C183.361 5.99752 183.756 6.52128 184.103 7.07939C184.12 7.11373 184.146 7.14378 184.176 7.18672C184.215 7.1309 184.245 7.08368 184.271 7.03646C185.039 5.82579 186.022 4.84696 187.306 4.18581C188.426 3.61053 189.62 3.37441 190.874 3.47315C192.415 3.59336 193.767 4.16005 194.896 5.22046C195.948 6.21217 196.575 7.43572 196.824 8.85674C196.961 9.65956 196.931 10.471 196.88 11.2781V11.291H196.875Z" fill="#9E1A7E"/>
</g>
<defs>
<clipPath id="clip0_559_2762">
<rect width="200" height="35.2853" fill="white" transform="translate(54)"/>
</clipPath>
</defs>
</svg>
