<svg width="32" height="32" viewBox="0 0 32 32" fill="none" xmlns="http://www.w3.org/2000/svg">
<path d="M16.0164 32C13.8107 32 11.7421 31.583 9.81069 30.749C7.87927 29.9259 6.17831 28.7791 4.70781 27.3086C3.2373 25.8381 2.08504 24.1372 1.25102 22.2058C0.427972 20.2634 0.016449 18.1948 0.016449 16C0.016449 13.7942 0.427972 11.7257 1.25102 9.79424C2.08504 7.86283 3.2373 6.16187 4.70781 4.69136C6.17831 3.22085 7.87927 2.07407 9.81069 1.25103C11.7421 0.41701 13.8107 0 16.0164 0C18.2222 0 20.2853 0.41701 22.2057 1.25103C24.1372 2.07407 25.8381 3.22085 27.3086 4.69136C28.7791 6.16187 29.9259 7.86283 30.749 9.79424C31.583 11.7257 32 13.7942 32 16C32 18.1948 31.583 20.2634 30.749 22.2058C29.9259 24.1372 28.7791 25.8381 27.3086 27.3086C25.8381 28.7791 24.1372 29.9259 22.2057 30.749C20.2853 31.583 18.2222 32 16.0164 32ZM16 29.4979C17.1742 29.4979 18.3429 29.3388 19.5062 29.0206C20.6694 28.7023 21.7668 28.2469 22.7983 27.6543C23.8409 27.0617 24.7572 26.3429 25.5473 25.4979C24.9657 24.5981 24.192 23.8354 23.2263 23.2099C22.2606 22.5734 21.1632 22.0905 19.9341 21.7613C18.7051 21.4321 17.3937 21.2675 16 21.2675C14.5953 21.2675 13.273 21.4376 12.0329 21.7778C10.8038 22.107 9.70644 22.5898 8.74073 23.2263C7.786 23.8519 7.01782 24.6091 6.4362 25.4979C7.2373 26.3429 8.15362 27.0617 9.18517 27.6543C10.2277 28.2469 11.3306 28.7023 12.4938 29.0206C13.6571 29.3388 14.8258 29.4979 16 29.4979ZM16 18.6173C17.0096 18.6283 17.9204 18.3759 18.7325 17.8601C19.5446 17.3333 20.1865 16.6255 20.6584 15.7366C21.1413 14.8368 21.3827 13.8217 21.3827 12.6914C21.3827 11.6379 21.1413 10.6722 20.6584 9.79424C20.1756 8.91632 19.5281 8.21399 18.716 7.68724C17.904 7.16049 16.9986 6.89712 16 6.89712C15.0014 6.89712 14.0905 7.16049 13.2675 7.68724C12.4554 8.21399 11.8079 8.91632 11.3251 9.79424C10.8532 10.6722 10.6173 11.6379 10.6173 12.6914C10.6173 13.8217 10.8532 14.8313 11.3251 15.7202C11.8079 16.5981 12.4554 17.3004 13.2675 17.8272C14.0795 18.3429 14.9904 18.6063 16 18.6173Z" fill="#9E1A7E"/>
</svg>
