<svg width="121" height="120" viewBox="0 0 121 120" fill="none" xmlns="http://www.w3.org/2000/svg">
<path d="M64.25 82.5C64.25 84.5711 62.5711 86.25 60.5 86.25C58.4289 86.25 56.75 84.5711 56.75 82.5C56.75 80.4289 58.4289 78.75 60.5 78.75C62.5711 78.75 64.25 80.4289 64.25 82.5Z" fill="#9E1A7E"/>
<path d="M60.5 7.5C46.062 7.5 32.938 13.35 23.45 22.838C23.45 22.838 23.4125 22.838 23.375 22.8755C23.3375 22.913 23.375 22.913 23.3375 22.9505C13.85 32.438 7.99951 45.5625 7.99951 60.0005C7.99951 88.9505 31.5495 112.501 60.4995 112.501C74.9375 112.501 88.0615 106.65 97.5495 97.1625C97.5495 97.1625 97.587 97.1625 97.6245 97.125C97.662 97.0875 97.6245 97.0875 97.662 97.05C107.15 87.5625 113 74.438 113 60C113 31.05 89.45 7.5 60.5 7.5ZM105.5 60C105.5 71.062 101.488 81.188 94.812 89.025L62.112 56.325C69.3495 56.7 75.874 59.4375 80.262 64.0875C81.012 64.875 81.987 65.25 82.9995 65.25C83.937 65.25 84.837 64.9125 85.587 64.2375C87.087 62.8125 87.162 60.45 85.737 58.95C79.6245 52.5 70.437 48.788 60.499 48.788C58.624 48.788 56.7865 48.9755 54.9865 49.238L48.6115 42.863C52.3615 41.8505 56.3365 41.288 60.4995 41.288C71.3745 41.288 81.3495 45.0005 87.8745 51.45C88.6245 52.1625 89.562 52.5375 90.4995 52.5375C91.437 52.5375 92.412 52.1625 93.162 51.4125C94.6245 49.95 94.6245 47.55 93.162 46.125C85.2495 38.2875 73.362 33.787 60.537 33.787C54.237 33.787 48.199 34.8745 42.725 36.8995L31.513 25.6875C39.3505 19.05 49.475 14.9995 60.538 14.9995C85.363 14.9995 105.538 35.1745 105.538 59.9995L105.5 60ZM15.5 60C15.5 48.938 19.5125 38.812 26.188 30.975L35.5255 40.3125C32.713 41.9625 30.1255 43.875 27.913 46.0875C26.4505 47.55 26.4505 49.9125 27.913 51.375C29.3755 52.8375 31.738 52.8375 33.2005 51.375C35.4505 49.1625 38.113 47.2875 41.038 45.75L46.6255 51.3375C42.2755 53.0625 38.413 55.6125 35.3375 58.875C33.9125 60.375 33.9875 62.7375 35.4875 64.1625C36.9875 65.5875 39.3875 65.5125 40.775 64.0125C43.8125 60.7875 47.9 58.5 52.55 57.225L59.1125 63.7875C54.3125 64.05 49.8875 65.6625 46.8125 68.3625C45.275 69.75 45.125 72.1125 46.475 73.65C47.8625 75.1875 50.225 75.3375 51.7625 73.9875C53.75 72.225 57.0125 71.175 60.5375 71.175C64.0625 71.175 67.2875 72.225 69.275 73.95L89.563 94.238C81.7255 100.876 71.601 104.926 60.538 104.926C35.713 104.926 15.538 84.751 15.538 59.926L15.5 60Z" fill="#9E1A7E"/>
</svg>
